<svg width="153" height="128" viewBox="0 0 153 128" fill="none" xmlns="http://www.w3.org/2000/svg">
<path d="M143.156 49.3861L53.1177 2.34096C43.9519 -2.43737 32.4748 0.787003 27.4968 9.5667L2.31057 53.8537C-2.68717 62.6333 0.690763 73.6274 9.85659 78.4252C19.8126 83.8833 29.7883 89.3221 39.7443 94.7803C40.9888 102.064 42.2333 109.329 43.458 116.613C43.6951 118.186 45.0384 118.905 45.1766 118.983C46.6187 119.74 48.041 119.157 48.199 119.08C55.4684 115.758 62.7379 112.437 70.0073 109.115C79.9633 114.573 89.9391 120.012 99.8951 125.47C109.061 130.249 120.538 127.024 125.516 118.245L150.702 73.9576C155.68 65.1585 152.302 54.1644 143.156 49.3861ZM96.5763 75.8806C96.3195 75.9777 95.964 76.0748 95.5294 76.1525C85.0005 79.0662 74.4717 81.9798 63.9429 84.8934C60.9798 75.3756 58.0167 65.8772 55.0536 56.3594C54.6388 55.5436 54.4215 54.786 54.3425 54.1062C53.5918 47.871 62.086 38.5669 70.8173 40.723C76.5459 42.1409 81.1683 48.2207 80.9115 55.2716C87.0945 51.1149 95.0553 51.5228 99.3814 55.3687C106.058 61.3125 102.088 73.8216 96.5763 75.8806Z" fill="#FF0000"/>
</svg>
