<svg width="371" height="449" viewBox="0 0 371 449" fill="none" xmlns="http://www.w3.org/2000/svg">
<g clip-path="url(#clip0)">
<path d="M248.652 135.868L210.57 169.496C208.914 170.958 208.758 173.484 210.221 175.139L264.475 236.477C265.938 238.132 268.467 238.288 270.123 236.825L308.206 203.198C309.862 201.736 310.018 199.209 308.554 197.555L254.3 136.217C252.837 134.562 250.308 134.406 248.652 135.868Z" fill="#44AD4E"/>
<path d="M304 200C287.861 198.106 271.722 196.211 255.583 194.317C253.547 194.078 252.022 192.339 252.05 190.289C252.296 172.526 252.542 154.763 252.783 137" stroke="#144460" stroke-opacity="0.83" stroke-miterlimit="10"/>
<path d="M357.279 250.949C346.926 240.051 333.392 240.115 331.213 240.162H116.366C113.686 240.366 101.247 241.612 91.6165 252.264C81.3275 263.645 81.98 277.203 82.1373 279.624V292.251H149.54V279.624C199.389 279.624 249.244 279.624 299.093 279.624V292.251H366.496V279.624C366.758 277.686 368.494 262.749 357.279 250.949Z" fill="#465B65" stroke="white" stroke-miterlimit="10"/>
<path d="M268.375 314.396C267.807 313.687 267.498 312.805 267.498 311.896V283.624C267.498 281.415 265.707 279.624 263.498 279.624H248.327C246.118 279.624 244.327 281.415 244.327 283.624V296.668C244.327 298.877 242.536 300.668 240.327 300.668H207.252C205.043 300.668 203.252 298.877 203.252 296.668V283.624C203.252 281.415 201.461 279.624 199.252 279.624H184.082C181.872 279.624 180.082 281.415 180.082 283.624V311.915C180.082 312.812 179.78 313.684 179.224 314.389C159.084 339.97 138.943 365.55 118.802 391.136C118.247 391.842 117.945 392.713 117.945 393.61V439.79C117.945 441.999 119.736 443.79 121.945 443.79H326.689C328.898 443.79 330.689 441.999 330.689 439.79V393.629C330.689 392.72 330.379 391.838 329.811 391.129C309.334 365.548 288.852 339.972 268.375 314.396Z" fill="#465B65"/>
<path d="M224.314 425.895C252.234 425.895 274.867 403.281 274.867 375.384C274.867 347.488 252.234 324.873 224.314 324.873C196.393 324.873 173.76 347.488 173.76 375.384C173.76 403.281 196.393 425.895 224.314 425.895Z" fill="#465B65" stroke="white" stroke-miterlimit="10"/>
<path d="M225.899 389.064C233.75 389.064 240.114 382.705 240.114 374.86C240.114 367.016 233.75 360.656 225.899 360.656C218.047 360.656 211.683 367.016 211.683 374.86C211.683 382.705 218.047 389.064 225.899 389.064Z" fill="white"/>
<path d="M247.484 374.331C257.313 371.525 267.142 368.719 276.977 365.913C276.977 370.826 276.977 375.734 276.977 380.647C267.148 378.539 257.319 376.438 247.484 374.331Z" fill="white"/>
<path d="M225.898 349.072C228.514 349.072 230.635 346.953 230.635 344.339C230.635 341.726 228.514 339.607 225.898 339.607C223.282 339.607 221.161 341.726 221.161 344.339C221.161 346.953 223.282 349.072 225.898 349.072Z" fill="white"/>
<path d="M225.898 411.162C228.514 411.162 230.635 409.043 230.635 406.429C230.635 403.815 228.514 401.696 225.898 401.696C223.282 401.696 221.161 403.815 221.161 406.429C221.161 409.043 223.282 411.162 225.898 411.162Z" fill="white"/>
<path d="M195.352 380.641C197.968 380.641 200.089 378.522 200.089 375.908C200.089 373.294 197.968 371.175 195.352 371.175C192.736 371.175 190.615 373.294 190.615 375.908C190.615 378.522 192.736 380.641 195.352 380.641Z" fill="white"/>
<path d="M203.777 401.69C206.393 401.69 208.513 399.572 208.513 396.958C208.513 394.344 206.393 392.225 203.777 392.225C201.161 392.225 199.04 394.344 199.04 396.958C199.04 399.572 201.161 401.69 203.777 401.69Z" fill="white"/>
<path d="M246.96 401.69C249.576 401.69 251.697 399.572 251.697 396.958C251.697 394.344 249.576 392.225 246.96 392.225C244.344 392.225 242.224 394.344 242.224 396.958C242.224 399.572 244.344 401.69 246.96 401.69Z" fill="white"/>
<path d="M203.777 359.597C206.393 359.597 208.513 357.478 208.513 354.864C208.513 352.25 206.393 350.132 203.777 350.132C201.161 350.132 199.04 352.25 199.04 354.864C199.04 357.478 201.161 359.597 203.777 359.597Z" fill="white"/>
<path d="M246.96 359.597C249.576 359.597 251.697 357.478 251.697 354.864C251.697 352.25 249.576 350.132 246.96 350.132C244.344 350.132 242.224 352.25 242.224 354.864C242.224 357.478 244.344 359.597 246.96 359.597Z" fill="white"/>
<path d="M145.747 292.251H85.9189C81.5007 292.251 77.9189 295.832 77.9189 300.251V318.975C77.9189 323.393 81.5007 326.975 85.9189 326.975H145.747C150.165 326.975 153.747 323.393 153.747 318.975V300.251C153.747 295.832 150.165 292.251 145.747 292.251Z" fill="#465B65" stroke="white" stroke-miterlimit="10"/>
<path d="M362.709 292.251H302.881C298.463 292.251 294.881 295.832 294.881 300.251V318.975C294.881 323.393 298.463 326.975 302.881 326.975H362.709C367.127 326.975 370.709 323.393 370.709 318.975V300.251C370.709 295.832 367.127 292.251 362.709 292.251Z" fill="#465B65" stroke="white" stroke-miterlimit="10"/>
<path d="M158.151 209.432C159.777 215.183 162.9 223.822 169.256 232.682C177.64 244.359 182.423 243.568 189.648 254.803C194.245 261.951 193.47 264.082 201.883 283.909C204.953 291.139 207.651 296.978 209.457 300.791C217.421 299.236 225.38 297.688 233.344 296.134C229.307 280.806 224.791 268.459 221.109 259.46C214.794 244.027 209.195 238.422 207.709 236.757C206.287 235.167 204.079 232.862 191.978 222.786C185.278 217.209 179.627 212.645 175.595 209.426C173.206 209.816 170.404 210.107 167.264 210.13C163.797 210.153 160.721 209.845 158.151 209.432Z" fill="#B3B3B3"/>
<path d="M209.416 300.255C209.911 304.737 210.406 309.226 210.902 313.708C216.448 313.283 223.743 312.678 232.313 311.822C246.744 310.378 252.308 309.488 252.699 307.211C253.048 305.209 249.244 302.886 248.516 302.444C244.828 300.191 242.229 300.948 237.434 298.648C235.587 297.763 234.206 296.791 233.35 296.134C225.368 297.502 217.392 298.881 209.416 300.255Z" fill="#44AD4E"/>
<path d="M235.413 301.547C235.768 301.134 236.293 300.616 237.004 300.156C238.146 299.411 239.247 299.143 239.928 299.032" stroke="#144460" stroke-opacity="0.83" stroke-miterlimit="10"/>
<path d="M237.423 302.595C237.778 302.182 238.303 301.664 239.013 301.204C240.155 300.459 241.256 300.191 241.938 300.08" stroke="#144460" stroke-opacity="0.83" stroke-miterlimit="10"/>
<path d="M239.765 303.154C240.12 302.741 240.644 302.223 241.355 301.763C242.497 301.018 243.598 300.75 244.28 300.639" stroke="#144460" stroke-opacity="0.83" stroke-miterlimit="10"/>
<path d="M212.627 309.511C225.794 308.259 238.967 307.002 252.134 305.75" stroke="#144460" stroke-opacity="0.83" stroke-miterlimit="10"/>
<path d="M149.495 210.939C143.196 228.683 147.665 237.001 149.448 239.667C151.26 242.38 154.54 245.553 161.1 251.892C164.468 255.146 167.323 257.737 169.257 259.46C164.404 276.149 159.545 292.833 154.691 309.523C163.623 309.715 172.56 309.913 181.492 310.105C196.145 274.187 194.251 256.91 189.066 247.817C188.326 246.525 186.147 242.98 175.083 224.532C171.657 218.816 168.832 214.1 166.938 210.934C164.549 211.324 161.747 211.615 158.607 211.638C155.14 211.667 152.064 211.353 149.495 210.939Z" fill="#B3B3B3"/>
<path d="M165.382 169.451C163.78 168.753 162.294 168.595 161.275 168.566C159.41 171.512 158.012 172.013 157.08 171.978C155.093 171.908 154.411 168.98 152.028 168.625C150.479 168.392 149.045 169.346 148.107 170.156C146.295 173.8 143.912 179.79 143.342 187.509C142.549 198.266 145.719 206.608 147.583 210.654C154.761 211.719 163.081 212.005 172.105 210.485C173.37 210.27 174.599 210.031 175.799 209.763C170.899 187.264 169.629 181.507 169.618 181.507C169.606 181.507 170.468 185.39 171.826 191.927C173.195 198.517 172.74 198.959 173.486 199.844C174.517 201.066 180.524 201.41 184.037 200.583C194.134 198.214 209.399 180.418 210.937 178.596C206.422 174.417 201.906 170.237 197.397 166.057C192.241 172.391 187.09 178.73 181.934 185.064C180.932 184.557 179.359 183.673 177.669 182.264C175.228 180.226 174.727 178.905 170.655 174.131C168.126 171.168 167.031 170.167 165.382 169.451Z" fill="#44AD4E"/>
<path d="M162.2 145.386C164.1 147.144 164.391 149.432 164.7 151.859C164.933 153.676 165.428 157.995 162.649 161.633C162.043 162.425 160.884 163.682 158.78 164.654C159.444 166.139 160.109 167.623 160.767 169.102C160.715 169.416 160.581 169.987 160.161 170.546C159.561 171.349 158.763 171.623 158.419 171.739C157.009 172.205 155.739 171.727 155.127 171.494C153.275 170.796 152.255 169.399 151.853 168.77C151.9 167.198 151.754 165.9 151.637 164.951C151.556 164.264 151.404 163.467 151.148 162.6C150.822 161.505 150.414 160.591 150.024 159.869C149.622 160.044 148.847 160.3 148.025 160.05C146.318 159.532 145.135 157.058 146.062 155.271C146.615 154.199 147.839 153.559 149.173 153.518C148.142 150.107 149.505 146.411 152.494 144.501C155.844 142.365 159.94 143.296 162.2 145.386Z" fill="#FFDDD3"/>
<path d="M153.497 148.879C153.992 148.617 154.714 148.442 154.837 148.646C154.971 148.867 154.406 149.542 153.753 149.892C153.258 150.154 152.535 150.328 152.413 150.125C152.273 149.898 152.838 149.228 153.497 148.879Z" fill="#144460" fill-opacity="0.83" stroke="#144460" stroke-opacity="0.83" stroke-width="0.4" stroke-miterlimit="10"/>
<path d="M165.831 147.808C166.612 147.511 167.428 146.841 167.626 145.956C167.882 144.81 167.061 143.447 165.563 142.493C166.775 141.905 167.509 140.77 167.428 139.652C167.334 138.336 166.047 137.609 165.295 137.178C163.582 136.2 161.811 136.392 161.036 136.532C159.16 134.512 156.323 133.784 153.888 134.681C150.94 135.763 150.025 138.686 149.92 139.017C149.524 139 146.296 138.919 144.455 141.259C142.544 143.698 142.882 147.802 145.748 150.619C145.614 150.742 145.009 151.312 144.968 152.214C144.933 152.959 145.282 153.897 146.139 154.287C147.123 154.735 148.067 154.153 148.137 154.106C148.9 155.096 149.233 155.265 149.384 155.189C149.838 154.974 148.539 152.68 149.116 149.874C149.203 149.443 149.541 147.976 150.677 146.678C152.53 144.565 155.467 144.425 155.816 144.414C160.605 144.257 162.784 148.96 165.831 147.808Z" fill="#144460" fill-opacity="0.83" stroke="#144460" stroke-opacity="0.83" stroke-miterlimit="10"/>
<path d="M160.191 147.924C159.632 147.866 158.898 147.977 158.863 148.215C158.822 148.471 159.603 148.879 160.337 148.955C160.896 149.013 161.63 148.902 161.665 148.664C161.706 148.407 160.931 148 160.191 147.924Z" fill="#144460" fill-opacity="0.83" stroke="#144460" stroke-opacity="0.83" stroke-width="0.4" stroke-miterlimit="10"/>
<path d="M154.702 151.516C154.37 151.51 154.061 152.162 154.032 152.703C153.997 153.425 154.457 154.182 154.801 154.124C155.151 154.066 155.413 153.187 155.302 152.5C155.244 152.104 155.023 151.516 154.702 151.516Z" fill="#144460" fill-opacity="0.83" stroke="#144460" stroke-opacity="0.83" stroke-width="0.4" stroke-miterlimit="10"/>
<path d="M159.905 150.858C159.573 150.852 159.264 151.504 159.235 152.046C159.2 152.768 159.661 153.524 160.004 153.466C160.354 153.408 160.616 152.529 160.505 151.842C160.447 151.446 160.22 150.858 159.905 150.858Z" fill="#144460" fill-opacity="0.83" stroke="#144460" stroke-opacity="0.83" stroke-width="0.4" stroke-miterlimit="10"/>
<path d="M157.611 153.652C157.523 154.776 157.815 155.352 158.123 155.678C158.397 155.969 158.712 156.08 158.735 156.383C158.764 156.837 158.129 157.238 158.001 157.32C157.739 157.489 157.488 157.564 157.319 157.599" stroke="#144460" stroke-opacity="0.83" stroke-width="0.4" stroke-miterlimit="10"/>
<path d="M155.35 159.607C155.641 159.776 156.486 160.219 157.633 160.108C158.7 160.009 159.416 159.479 159.684 159.27" stroke="#144460" stroke-opacity="0.83" stroke-width="0.4" stroke-miterlimit="10"/>
<path d="M151.323 169.236C153.211 172.03 156.281 173.264 158.705 172.432C160.266 171.896 161.158 170.633 161.537 169.993" stroke="#144460" stroke-opacity="0.83" stroke-miterlimit="10"/>
<path d="M154.93 309.121C154.487 313.609 154.044 318.103 153.602 322.591C159.113 323.319 166.378 324.233 174.937 325.164C189.357 326.736 194.979 327.004 195.836 324.867C196.593 322.981 193.348 319.925 192.73 319.337C189.398 316.199 186.263 316.735 182.674 313.335C181.358 312.09 180.524 310.826 180.041 309.988C171.663 309.697 163.296 309.412 154.93 309.121Z" fill="#44AD4E"/>
<path d="M168.732 180.122C169.222 181.204 169.694 182.339 170.137 183.533C172.356 189.535 173.16 195.193 173.329 199.96" stroke="#144460" stroke-opacity="0.83" stroke-miterlimit="10"/>
<path d="M147.111 156.848C147.746 157.226 148.381 157.605 149.016 157.983C148.83 157.529 148.644 157.075 148.457 156.615" stroke="#144460" stroke-opacity="0.83" stroke-width="0.4" stroke-miterlimit="10"/>
<path d="M158.781 164.66C158.222 164.87 157.418 165.103 156.428 165.149C154.965 165.213 153.812 164.847 153.159 164.579C153.689 165.021 154.901 165.906 156.684 166.162C157.808 166.325 158.747 166.174 159.341 166.028C159.16 165.568 158.968 165.114 158.781 164.66Z" fill="#144460" fill-opacity="0.83"/>
<path d="M149.739 226.564C150.374 227.524 151.027 228.485 151.691 229.457" stroke="#144460" stroke-opacity="0.83" stroke-miterlimit="10"/>
<path d="M155.502 234.807C155.91 235.36 156.318 235.907 156.731 236.466C161.177 242.38 165.686 247.718 170.114 252.521" stroke="#144460" stroke-opacity="0.83" stroke-miterlimit="10" stroke-dasharray="11.27 11.27"/>
<path d="M172.362 254.907C173.178 255.763 173.988 256.596 174.792 257.416C174.506 258.54 174.221 259.669 173.93 260.799" stroke="#144460" stroke-opacity="0.83" stroke-miterlimit="10"/>
<path d="M172.083 267.871C171.821 268.849 171.564 269.827 171.296 270.811C169.315 278.181 167.276 285.405 165.185 292.489" stroke="#144460" stroke-opacity="0.83" stroke-miterlimit="10" stroke-dasharray="12.55 12.55"/>
<path d="M164.148 295.988C163.815 297.106 163.478 298.223 163.14 299.329" stroke="#144460" stroke-opacity="0.83" stroke-miterlimit="10"/>
<path d="M177.122 228.31C177.92 229.201 178.683 230.08 179.412 230.953" stroke="#144460" stroke-opacity="0.83" stroke-miterlimit="10"/>
<path d="M183.893 236.658C186.777 240.599 188.938 244.115 190.523 246.938C195.073 255.024 196.489 260.117 202.758 274.298C204.605 278.478 206.323 282.203 207.821 285.358" stroke="#144460" stroke-opacity="0.83" stroke-miterlimit="10" stroke-dasharray="12.45 12.45"/>
<path d="M209.388 288.624C209.947 289.782 210.46 290.836 210.92 291.762" stroke="#144460" stroke-opacity="0.83" stroke-miterlimit="10"/>
<path d="M154.477 229.981C154.914 233.095 155.176 235.691 155.333 237.554C156.015 245.558 155.578 248.778 154.448 251.537C153.76 253.219 152.694 255.012 150.894 255.618C150.637 255.705 149.6 256.054 149.21 255.618C148.656 254.995 149.956 253.347 150.952 250.891C151.529 249.464 152.036 247.706 152.239 245.582C151.791 247.642 151.29 249.331 150.888 250.565C150.072 253.068 149.559 253.982 148.627 254.389C148.551 254.424 147.439 254.872 146.943 254.389C146.349 253.819 147.124 252.404 148.487 248.69C149.542 245.826 149.938 244.342 149.973 244.353C150.002 244.359 149.658 245.192 148.487 248.69C147.899 250.448 147.544 251.554 146.483 252.125C146.163 252.299 145.58 252.608 145.19 252.387C143.652 251.508 146.705 243.317 146.728 243.323C146.734 243.323 146.606 243.8 146.343 244.749C146.221 245.192 145.86 246.484 145.312 247.986C144.316 250.722 143.797 251.188 143.308 251.42C142.982 251.578 142.626 251.746 142.335 251.618C140.663 250.873 143.25 241.315 143.29 241.326C143.314 241.332 142.813 243.562 142.387 245.209C141.63 248.155 141.298 248.487 141.03 248.51C140.441 248.562 139.824 247.142 139.602 246.443C139.142 244.982 138.536 242.351 138.618 238.224C143.908 235.476 149.192 232.728 154.477 229.981Z" fill="#FFDDD3"/>
<path d="M154.476 229.981L155.07 234.9L155.373 237.38C155.455 238.206 155.525 239.033 155.583 239.859C155.699 241.513 155.787 243.172 155.763 244.831C155.734 246.49 155.618 248.166 155.192 249.79C154.983 250.6 154.703 251.391 154.353 252.154C154.004 252.916 153.59 253.662 153.037 254.308C152.489 254.954 151.784 255.507 150.957 255.792C150.555 255.926 150.135 256.054 149.663 256.019C149.436 256.002 149.139 255.914 148.988 255.652C148.836 255.396 148.871 255.123 148.912 254.902C149.145 254.034 149.582 253.336 149.931 252.585C150.298 251.845 150.636 251.1 150.922 250.332C151.487 248.795 151.837 247.183 151.988 245.558L152.472 245.634C152.11 247.287 151.673 248.923 151.155 250.536C150.893 251.339 150.625 252.142 150.258 252.928C150.065 253.318 149.85 253.708 149.535 254.052C149.226 254.395 148.778 254.645 148.347 254.756C147.921 254.861 147.426 254.983 146.908 254.698C146.657 254.552 146.494 254.238 146.476 253.976C146.453 253.714 146.5 253.487 146.541 253.266C146.756 252.404 147.082 251.636 147.374 250.844C147.98 249.272 148.562 247.701 149.092 246.106L149.477 244.906C149.541 244.703 149.593 244.516 149.681 244.284L149.693 244.254C149.693 244.289 149.675 244.185 149.879 244.086C149.984 243.998 150.263 244.138 150.24 244.406L150.229 244.447L150.199 244.546L150.147 244.697L150.042 244.994L149.221 247.375L148.411 249.773C148.119 250.559 147.816 251.438 147.077 252.061C146.902 252.212 146.686 252.34 146.494 252.433C146.296 252.532 146.092 252.631 145.847 252.695C145.614 252.753 145.3 252.788 145.014 252.614C144.729 252.439 144.618 252.16 144.554 251.927C144.431 251.45 144.449 251.007 144.478 250.571C144.513 250.134 144.583 249.715 144.659 249.29C144.985 247.613 145.48 245.995 146.028 244.388L146.238 243.789L146.348 243.492L146.407 243.341L146.436 243.265L146.459 243.207C146.482 243.125 146.645 243.026 146.739 243.044C146.931 243.044 147.047 243.614 146.972 243.387L146.634 244.621C146.389 245.43 146.121 246.234 145.865 247.043C145.614 247.852 145.34 248.65 144.997 249.435C144.828 249.825 144.647 250.215 144.42 250.6C144.198 250.966 143.919 251.374 143.47 251.607C143.266 251.706 143.08 251.805 142.835 251.869C142.608 251.944 142.235 251.927 142.002 251.706C141.594 251.275 141.571 250.798 141.518 250.367C141.454 249.488 141.536 248.638 141.641 247.794C141.862 246.111 142.212 244.452 142.614 242.811C142.719 242.403 142.823 241.99 142.934 241.582L143.027 241.268C143.027 241.286 143.027 241.222 143.109 241.146C143.191 241.082 143.284 241.07 143.33 241.088C143.4 241.099 143.505 241.233 143.493 241.321C143.488 241.408 143.488 241.355 143.488 241.385L143.47 241.472L143.435 241.629L143.295 242.246C143.109 243.067 142.911 243.888 142.701 244.709C142.491 245.523 142.276 246.344 142.008 247.153C141.868 247.561 141.74 247.963 141.489 248.358C141.425 248.457 141.338 248.568 141.186 248.644C141.023 248.719 140.848 248.69 140.72 248.632C140.458 248.51 140.318 248.324 140.184 248.143C139.677 247.41 139.409 246.577 139.194 245.762C138.978 244.941 138.821 244.103 138.704 243.265C138.471 241.582 138.407 239.889 138.448 238.2V238.113L138.524 238.072L154.476 229.981ZM154.476 229.981L138.687 238.358L138.768 238.229C138.745 239.906 138.827 241.582 139.071 243.236C139.194 244.062 139.357 244.883 139.578 245.686C139.794 246.49 140.068 247.282 140.528 247.933C140.644 248.085 140.778 248.236 140.907 248.289C140.971 248.312 141.023 248.312 141.052 248.3C141.087 248.283 141.146 248.225 141.192 248.149C141.39 247.835 141.524 247.427 141.652 247.037C141.903 246.245 142.113 245.43 142.311 244.615C142.509 243.8 142.695 242.98 142.876 242.159L143.004 241.548L143.033 241.396L143.045 241.326C143.045 241.338 143.051 241.274 143.045 241.35C143.033 241.425 143.138 241.548 143.208 241.548C143.255 241.559 143.342 241.577 143.418 241.518C143.488 241.454 143.488 241.402 143.482 241.431L143.4 241.722C143.29 242.124 143.191 242.531 143.091 242.939C142.707 244.569 142.357 246.216 142.148 247.869C142.049 248.696 141.973 249.529 142.031 250.332C142.06 250.722 142.159 251.147 142.346 251.327C142.486 251.496 142.876 251.339 143.231 251.153C143.54 250.995 143.767 250.681 143.977 250.338C144.181 249.994 144.356 249.616 144.519 249.237C144.845 248.475 145.119 247.683 145.364 246.88C145.614 246.082 145.876 245.291 146.115 244.487L146.442 243.282C146.372 243.044 146.5 243.585 146.68 243.597C146.768 243.626 146.925 243.538 146.943 243.469C146.954 243.439 146.937 243.48 146.937 243.48L146.908 243.55L146.855 243.696L146.75 243.987L146.546 244.58C146.01 246.164 145.527 247.776 145.212 249.406C145.072 250.204 144.933 251.077 145.101 251.781C145.206 252.148 145.34 252.23 145.702 252.142C146.028 252.043 146.43 251.84 146.698 251.618C147.275 251.141 147.578 250.361 147.857 249.587L148.667 247.2L149.5 244.813L149.605 244.516L149.658 244.371L149.675 244.318C149.675 244.318 149.675 244.313 149.675 244.318C149.652 244.569 149.931 244.691 150.025 244.627C150.223 244.534 150.194 244.441 150.188 244.487L150.182 244.499L149.995 245.081L149.599 246.286C149.063 247.887 148.469 249.47 147.857 251.042C147.56 251.828 147.228 252.614 147.036 253.388C147.001 253.574 146.96 253.772 146.978 253.929C146.995 254.087 147.047 254.186 147.158 254.255C147.391 254.401 147.811 254.36 148.178 254.255C148.562 254.151 148.871 253.976 149.133 253.697C149.395 253.423 149.593 253.068 149.768 252.707C150.118 251.968 150.386 251.17 150.648 250.378C151.167 248.783 151.604 247.165 151.965 245.529L152.448 245.605C152.279 247.27 151.906 248.923 151.312 250.489C151.015 251.275 150.66 252.032 150.281 252.777C149.92 253.516 149.477 254.25 149.273 254.989C149.186 255.367 149.291 255.606 149.675 255.629C150.03 255.658 150.432 255.559 150.811 255.431C151.563 255.181 152.215 254.68 152.74 254.075C153.783 252.841 154.418 251.275 154.86 249.709C155.291 248.126 155.431 246.472 155.49 244.825C155.536 243.172 155.478 241.518 155.391 239.865C155.344 239.039 155.291 238.212 155.222 237.391L154.965 234.935L154.476 229.981Z" fill="#144460" fill-opacity="0.83"/>
<path d="M147.426 170.487C146.144 170.458 145.131 172.036 144.595 172.927C138.553 182.933 137.621 196.829 137.58 197.533C137.172 204.402 137.155 210.363 137.335 218.693C137.522 227.425 137.842 234.632 138.104 239.598C143.668 239.51 149.238 239.417 154.802 239.33C155.204 227.536 155.717 215.614 156.34 203.552C156.596 198.651 156.864 193.767 157.156 188.912C156.509 187.555 155.495 185.407 154.301 182.741C150.485 174.219 149.36 170.528 147.426 170.487Z" fill="#44AD4E"/>
<path d="M161.974 306.315C168.382 306.315 174.791 306.315 181.2 306.315" stroke="#144460" stroke-opacity="0.83" stroke-miterlimit="10"/>
<path d="M213.244 295.837C217.905 294.864 222.566 293.898 227.227 292.926" stroke="#144460" stroke-opacity="0.83" stroke-miterlimit="10"/>
<path d="M197.683 165.983C199.04 163.8 202.303 158.916 206.469 156.034C208.636 154.532 210.256 154.125 211.648 154.457C211.91 154.521 212.982 154.771 213.075 155.347C213.215 156.168 211.24 156.878 209.09 158.433C207.843 159.335 206.486 160.557 205.181 162.251C206.655 160.744 207.972 159.579 208.974 158.741C210.995 157.053 211.916 156.546 212.918 156.698C213 156.709 214.182 156.913 214.346 157.588C214.544 158.386 213.139 159.178 210.011 161.599C207.599 163.468 206.474 164.522 206.451 164.492C206.434 164.469 207.162 163.945 210.011 161.599C211.444 160.423 212.33 159.667 213.53 159.748C213.891 159.771 214.555 159.818 214.765 160.214C215.604 161.768 208.671 167.1 208.648 167.083C208.642 167.077 209.009 166.745 209.731 166.082C210.069 165.773 211.065 164.871 212.324 163.881C214.619 162.088 215.307 161.972 215.843 162.03C216.198 162.071 216.589 162.112 216.769 162.379C217.795 163.899 210.529 170.628 210.5 170.599C210.483 170.587 212.091 168.957 213.326 167.781C215.534 165.686 215.989 165.575 216.227 165.697C216.769 165.971 216.466 167.572 216.338 168.206C215.948 170.18 214.817 173.673 210.978 178.545C206.556 174.36 202.122 170.168 197.683 165.983Z" fill="#FFDDD3"/>
<path d="M197.683 165.982C199.052 163.758 200.567 161.616 202.314 159.666C203.188 158.694 204.121 157.768 205.128 156.924C206.142 156.091 207.208 155.306 208.42 154.758C209.026 154.485 209.667 154.275 210.343 154.217C211.019 154.147 211.7 154.258 212.335 154.496C212.644 154.63 212.994 154.776 213.186 155.154C213.285 155.346 213.244 155.597 213.151 155.765C213.064 155.946 212.93 156.068 212.802 156.185C212.277 156.633 211.706 156.947 211.153 157.296C210.034 157.972 208.956 158.688 207.989 159.543C207.016 160.393 206.136 161.348 205.35 162.373L205.029 162.093C206.259 160.83 207.546 159.625 208.898 158.49C209.58 157.925 210.256 157.355 211.048 156.895C211.444 156.668 211.887 156.47 212.376 156.423C212.877 156.377 213.349 156.499 213.78 156.691C214.002 156.79 214.223 156.924 214.404 157.145C214.59 157.355 214.678 157.704 214.579 157.989C214.491 158.269 214.328 158.466 214.165 158.635C214.008 158.81 213.833 158.961 213.664 159.107C212.976 159.683 212.266 160.195 211.572 160.731C210.174 161.785 208.799 162.867 207.459 163.997L206.958 164.422L206.702 164.637L206.661 164.666L206.637 164.684C206.608 164.701 206.672 164.672 206.562 164.724C206.387 164.748 206.23 164.753 206.189 164.491C206.288 164.148 206.265 164.334 206.282 164.27L206.329 164.23L206.463 164.119L207.488 163.298L209.527 161.633C210.209 161.08 210.861 160.492 211.642 159.997C212.033 159.759 212.475 159.549 212.965 159.479C213.204 159.439 213.466 159.444 213.687 159.462C213.914 159.479 214.153 159.508 214.404 159.59C214.637 159.666 214.946 159.829 215.068 160.16C215.185 160.475 215.126 160.772 215.045 160.999C214.876 161.47 214.608 161.843 214.34 162.21C213.786 162.931 213.163 163.56 212.528 164.177C211.887 164.788 211.223 165.371 210.547 165.941L209.521 166.779L208.997 167.187L208.857 167.292C208.828 167.332 208.63 167.385 208.531 167.309C208.38 167.361 208.467 166.593 208.484 166.867L208.519 166.832L208.583 166.773L208.828 166.546C209.463 165.941 210.145 165.376 210.821 164.806C211.502 164.241 212.155 163.647 212.877 163.129C213.233 162.867 213.6 162.611 213.984 162.373C214.369 162.14 214.771 161.913 215.254 161.79C215.493 161.726 215.779 161.726 216 161.761C216.222 161.79 216.472 161.814 216.734 161.953C217.02 162.087 217.183 162.46 217.165 162.733C217.16 163.013 217.078 163.246 216.996 163.467C216.629 164.334 216.076 165.033 215.534 165.737C214.981 166.43 214.392 167.088 213.786 167.734C213.186 168.38 212.563 169.003 211.933 169.62C211.619 169.929 211.298 170.231 210.972 170.534L210.716 170.761C210.716 170.767 210.588 170.854 210.483 170.825C210.372 170.796 210.343 170.778 210.302 170.656C210.256 170.534 210.366 170.383 210.36 170.4L210.378 170.383L210.436 170.319L210.553 170.196L211.019 169.725C212.266 168.485 213.501 167.239 214.882 166.11C215.056 165.97 215.237 165.836 215.429 165.708C215.633 165.598 215.814 165.435 216.181 165.44C216.379 165.464 216.519 165.598 216.6 165.72C216.676 165.848 216.717 165.976 216.74 166.104C216.787 166.348 216.787 166.581 216.775 166.814C216.717 167.722 216.513 168.584 216.274 169.445C215.26 172.868 213.297 175.878 211.129 178.637L211.025 178.771L210.902 178.655L197.683 165.982ZM197.683 165.982L211.095 178.439L210.873 178.457C213 175.697 214.911 172.688 215.872 169.341C216.093 168.508 216.286 167.647 216.332 166.803C216.338 166.593 216.332 166.383 216.297 166.203C216.268 166.011 216.163 165.889 216.111 165.889C216.029 165.877 215.814 165.982 215.656 166.092C215.482 166.209 215.313 166.337 215.15 166.471C213.821 167.577 212.592 168.846 211.357 170.08L210.902 170.551L210.792 170.668L210.739 170.72L210.727 170.732C210.71 170.761 210.821 170.621 210.762 170.505C210.704 170.406 210.681 170.383 210.588 170.342C210.494 170.301 210.378 170.377 210.39 170.377L210.623 170.167C210.943 169.87 211.258 169.568 211.572 169.265C212.196 168.654 212.807 168.031 213.402 167.39C213.996 166.75 214.573 166.098 215.115 165.417C215.645 164.736 216.181 164.032 216.495 163.275C216.565 163.089 216.624 162.896 216.624 162.733C216.612 162.576 216.583 162.489 216.46 162.419C216.338 162.349 216.134 162.314 215.924 162.291C215.709 162.262 215.552 162.268 215.365 162.309C214.614 162.518 213.885 163.065 213.192 163.566C212.487 164.072 211.84 164.666 211.17 165.225C210.506 165.79 209.836 166.348 209.201 166.954L208.962 167.175L208.904 167.227L208.881 167.251C208.892 167.524 208.95 166.791 208.822 166.826C208.735 166.744 208.548 166.791 208.531 166.82L208.653 166.727L209.166 166.325L210.18 165.493C210.844 164.928 211.497 164.352 212.126 163.746C212.749 163.141 213.361 162.524 213.879 161.849C214.369 161.22 214.94 160.259 214.229 160.12C213.885 160.021 213.425 159.974 213.058 160.032C212.673 160.085 212.301 160.254 211.945 160.469C211.234 160.911 210.576 161.499 209.888 162.052L207.843 163.711L206.812 164.532L206.69 164.631L206.672 164.643C206.678 164.59 206.643 164.783 206.737 164.451C206.678 164.206 206.55 164.189 206.387 164.212C206.288 164.264 206.364 164.224 206.346 164.23L206.358 164.224L206.381 164.206L206.626 164.003L207.127 163.578C208.473 162.442 209.865 161.36 211.269 160.306C211.968 159.776 212.685 159.264 213.343 158.711C213.652 158.437 214.008 158.129 214.101 157.838C214.2 157.576 213.944 157.302 213.582 157.139C213.215 156.976 212.807 156.871 212.429 156.912C212.044 156.947 211.66 157.11 211.298 157.314C210.57 157.733 209.888 158.292 209.213 158.845C207.867 159.957 206.573 161.138 205.344 162.384L205.024 162.105C205.833 161.063 206.742 160.096 207.744 159.241C208.741 158.379 209.859 157.652 210.984 156.988C211.537 156.65 212.12 156.33 212.592 155.928C212.825 155.725 213 155.48 212.901 155.271C212.802 155.049 212.51 154.886 212.231 154.776C211.642 154.549 211.007 154.438 210.378 154.496C209.749 154.549 209.125 154.729 208.537 154.985C207.354 155.498 206.282 156.254 205.262 157.064C204.249 157.879 203.311 158.787 202.419 159.741C200.642 161.668 199.087 163.775 197.683 165.982Z" fill="#144460" fill-opacity="0.83"/>
<path d="M180.099 315.751C180.536 315.42 181.147 315.024 181.946 314.715C183.216 314.226 184.346 314.185 185.039 314.22" stroke="#144460" stroke-opacity="0.83" stroke-miterlimit="10"/>
<path d="M181.847 317.195C182.284 316.863 182.895 316.467 183.694 316.159C184.964 315.67 186.094 315.629 186.787 315.664" stroke="#144460" stroke-opacity="0.83" stroke-miterlimit="10"/>
<path d="M184.021 318.225C184.457 317.893 185.069 317.498 185.867 317.189C187.138 316.7 188.268 316.659 188.961 316.694" stroke="#144460" stroke-opacity="0.83" stroke-miterlimit="10"/>
<path d="M145.853 171.529C146.581 170.493 147.28 169.993 147.95 170.028C150.17 170.144 152.081 176.122 153.683 187.969C154.295 196.066 154.912 204.163 155.524 212.261" stroke="#144460" stroke-opacity="0.83" stroke-miterlimit="10"/>
<path d="M156.153 318.836C169.297 320.327 182.441 321.823 195.585 323.313" stroke="#144460" stroke-opacity="0.83" stroke-miterlimit="10"/>
<path d="M168.784 214.351C169.92 216.266 171.4 218.757 173.16 221.697C174.36 223.705 175.688 225.923 177.127 228.31C184.515 240.587 187.859 245.925 188.78 247.52C193.458 255.6 195.765 270.712 184.701 301.658" stroke="#144460" stroke-opacity="0.83" stroke-miterlimit="10"/>
<path d="M42.7375 443.871C32.1046 443.871 21.4759 443.871 10.843 443.871C7.23005 423.052 3.61292 402.232 0 381.412H52.9461C49.5433 402.232 46.1404 423.052 42.7375 443.871Z" fill="#EBEBEB"/>
<path d="M24.8787 315.763C24.8115 321.925 26.8952 328.267 22.963 334.883C20.6272 338.816 18.031 340.021 15.9472 341.893C11.6663 345.738 9.85568 355.875 20.413 383.322C25.0888 383.108 29.7688 382.898 34.4488 382.684C36.4863 374.86 39.2296 363.208 41.4646 348.903C42.4098 342.862 50.7825 289.31 42.7417 287.077C38.1121 285.797 25.0384 300.66 24.8787 315.763Z" fill="#44AD4E"/>
<path d="M38.5904 299.51C39.1533 306.499 38.8256 313.576 37.5989 320.502C36.9898 323.965 36.1454 327.394 35.0573 330.744C33.9524 334.089 32.6123 337.343 31.3393 340.6C30.705 342.228 30.1042 343.87 29.5455 345.519C28.9993 347.173 28.4952 348.844 28.0541 350.531C27.1719 353.902 26.5165 357.335 26.0922 360.794C25.2646 367.724 25.3528 374.747 26.1174 381.694L25.5629 381.622C26.9786 378.13 28.3776 374.629 29.8143 371.145C31.2511 367.661 32.6669 364.169 34.1246 360.693C32.8181 364.228 31.4738 367.749 30.142 371.275C28.8145 374.801 27.4449 378.315 26.1006 381.832L25.6973 382.886L25.5461 381.761C24.6176 374.793 24.5168 367.699 25.3108 360.698C25.7225 357.201 26.3527 353.721 27.2433 350.313C27.697 348.609 28.2179 346.925 28.7809 345.255C29.3564 343.588 29.9698 341.943 30.6167 340.31C31.9149 337.045 33.2634 333.821 34.3767 330.509C35.4858 327.201 36.3974 323.827 37.0612 320.393C38.3803 313.538 38.8971 306.516 38.5904 299.51Z" fill="#144460" fill-opacity="0.83"/>
<path d="M52.3076 384.598C35.0832 384.598 17.863 384.598 0.638563 384.598C0.424308 383.536 0.214255 382.474 0 381.412C3.45748 381.412 6.91497 381.412 10.3724 381.412C24.5637 381.412 38.7549 381.412 52.9461 381.412C52.7319 382.474 52.5218 383.536 52.3076 384.598Z" fill="#DBDBDB"/>
<path d="M17.5639 346.04C17.5597 346.879 17.5723 347.715 17.6605 348.542C17.7277 349.369 17.8454 350.187 18.0176 350.997C18.3537 352.609 18.8536 354.187 19.593 355.652C20.2694 357.151 21.2062 358.519 22.2481 359.791C22.769 360.429 23.3404 361.033 23.9495 361.596C24.5419 362.179 25.1888 362.708 25.8484 363.229L25.8274 363.262C24.4158 362.356 23.1261 361.26 22.0086 360.005C20.8995 358.75 19.9417 357.348 19.2191 355.829C18.4881 354.317 17.9798 352.701 17.6983 351.048C17.4169 349.394 17.3538 347.702 17.5261 346.031L17.5639 346.04Z" fill="#144460" fill-opacity="0.83"/>
<path d="M21.6904 443.872C31.0462 429.848 40.402 415.828 49.7578 401.804C47.4178 415.828 45.0778 429.848 42.742 443.872C35.722 443.872 28.7062 443.872 21.6904 443.872Z" fill="#DBDBDB"/>
<path d="M52.5996 414.296C52.0403 414.989 51.1605 416.033 49.9836 417.213C46.9365 420.266 45.6839 420.423 43.2311 422.837C41.1511 424.888 38.7449 427.254 38.8731 430.339C38.9488 432.163 39.8752 433.602 40.6151 434.506C38.8556 435.913 38.4186 438.322 39.5256 440.13C40.72 442.084 43.4058 442.858 45.6256 441.797C46.8724 442.419 49.8904 443.718 53.8988 443.464C58.1345 443.193 61.0475 441.348 62.172 440.547C63.815 441.656 68.6624 444.606 74.8032 443.881C83.0356 442.906 91.9496 435.518 90.7028 426.171C89.6425 418.226 81.6664 412.093 73.4981 412.629C65.8134 413.132 61.4321 419.303 60.8669 420.131C60.797 419.4 60.6688 418.556 60.43 417.63C60.1794 416.661 59.8648 415.828 59.556 415.13C57.9597 416.797 56.3633 418.464 54.7669 420.131C54.0503 418.188 53.3278 416.239 52.5996 414.296Z" fill="#415465"/>
<path d="M41.71 425.549C41.7566 426.171 41.9721 426.653 42.345 427.015C42.7179 427.378 43.2189 427.594 43.889 427.632C43.621 427.833 43.2481 427.903 42.8869 427.854C42.5256 427.811 42.1819 427.632 41.9197 427.389C41.6692 427.134 41.5002 426.81 41.4653 426.474C41.4245 426.144 41.5061 425.803 41.71 425.549Z" fill="white"/>
<path d="M47.373 428.883C47.8858 429.272 48.4276 429.586 49.0102 429.765C49.587 429.938 50.1987 429.971 50.7872 429.868C51.3756 429.77 51.9466 429.538 52.4651 429.224C52.9895 428.91 53.4556 428.504 53.9042 428.055C53.4206 429.197 52.2845 430.155 50.8921 430.404C50.2046 430.523 49.4646 430.452 48.8354 430.16C48.212 429.873 47.6993 429.419 47.373 428.883Z" fill="white"/>
<path d="M51.7305 422.632C52.0859 422.053 52.5578 421.603 53.0647 421.181C53.5774 420.77 54.1192 420.391 54.7834 420.131C54.428 420.71 53.9561 421.159 53.4492 421.582C52.9307 421.993 52.3888 422.377 51.7305 422.632Z" fill="white"/>
<path d="M40.4053 432.217C40.6034 432.433 40.8481 432.531 41.0345 432.466C41.2268 432.417 41.3783 432.271 41.454 432.098L41.9667 432.32C41.9143 432.449 41.891 432.606 41.8968 432.736C41.9143 432.866 41.955 432.985 42.0483 433.093C42.2347 433.315 42.5843 433.456 43.0096 433.467C42.6717 433.716 42.1065 433.732 41.7045 433.429C41.5064 433.278 41.3549 433.045 41.3316 432.801C41.2967 432.558 41.3433 432.33 41.4482 432.114L41.9609 432.336C41.7919 432.639 41.4365 432.866 41.052 432.85C40.8655 432.839 40.6791 432.758 40.5684 432.633C40.4635 432.504 40.4111 432.357 40.4053 432.217Z" fill="white"/>
<path d="M44.7578 432.634C46.3018 432.563 47.834 432.65 49.3605 432.78C50.887 432.926 52.4018 433.115 53.9049 433.467C52.3552 433.543 50.8287 433.451 49.3022 433.321C47.7816 433.169 46.261 432.985 44.7578 432.634Z" fill="white"/>
<path d="M44.7578 433.467C46.092 433.83 47.3505 434.344 48.5856 434.891C49.8149 435.454 51.0268 436.054 52.1629 436.801C50.8287 436.439 49.5702 435.925 48.3351 435.378C47.1058 434.815 45.8939 434.214 44.7578 433.467Z" fill="white"/>
<path d="M44.3262 434.301C45.707 435.112 46.9771 436.043 48.2181 437.012C49.4474 437.992 50.6476 438.999 51.7312 440.135C50.3504 439.329 49.0803 438.392 47.8394 437.424C46.61 436.444 45.4098 435.437 44.3262 434.301Z" fill="white"/>
<path d="M40.8418 434.717C41.5992 435.199 42.3158 435.621 43.1024 435.897C43.8889 436.184 44.7162 436.314 45.6309 436.384C44.792 436.747 43.7724 436.714 42.8926 436.401C42.0187 436.076 41.2555 435.486 40.8418 434.717Z" fill="white"/>
<path d="M47.3729 437.218C46.7145 437.164 46.0853 437.294 45.5726 437.581C45.0599 437.868 44.6637 438.301 44.4948 438.815C44.3083 439.324 44.3316 439.897 44.5297 440.422C44.7278 440.953 45.1065 441.429 45.6367 441.803C44.9958 441.635 44.4249 441.175 44.1102 440.59C43.784 440.006 43.7141 439.291 43.9413 438.647C44.1685 437.998 44.7103 437.462 45.3687 437.207C46.0154 436.942 46.7728 436.942 47.3729 437.218Z" fill="white"/>
<path d="M58.6992 423.882C59.177 423.265 59.6139 422.713 59.9635 422.096C60.3247 421.484 60.5869 420.84 60.8782 420.131C61.053 420.878 60.8666 421.674 60.4762 422.35C60.08 423.027 59.4624 423.606 58.6992 423.882Z" fill="white"/>
<path d="M83.0875 433.467C81.9805 435.091 80.4365 436.493 78.5663 437.391C76.6786 438.279 74.4472 438.457 72.3789 437.976C71.3419 437.716 70.3689 437.175 69.6697 436.395C68.9648 435.621 68.5511 434.658 68.3239 433.694C67.8694 431.762 68.0559 429.786 67.7121 427.946C67.5432 427.042 67.1587 426.144 66.3197 425.733C65.504 425.3 64.4553 425.375 63.5231 425.662C62.5676 425.949 61.7228 426.452 61.1344 427.194C60.5401 427.93 60.1731 428.818 59.9517 429.732C59.7361 430.652 59.6603 431.605 59.6662 432.558C59.6778 433.51 59.7652 434.463 59.9983 435.394C60.4352 437.256 61.3383 439.031 62.6201 440.546C61.2392 439.107 60.2604 437.331 59.7244 435.459C59.4564 434.517 59.3399 433.537 59.2991 432.568C59.2642 431.594 59.3166 430.615 59.5147 429.651C59.7128 428.688 60.0798 427.73 60.7324 426.912C61.3674 426.09 62.3404 425.5 63.3541 425.191C64.3563 424.872 65.5623 424.747 66.5935 425.272C67.1004 425.521 67.514 425.933 67.7704 426.393C68.0384 426.853 68.1899 427.345 68.2831 427.838C68.621 429.797 68.4171 431.735 68.8366 433.581C69.0405 434.495 69.4192 435.378 70.0484 436.081C70.6835 436.785 71.5458 437.299 72.5013 437.564C74.4297 438.062 76.6029 437.954 78.4382 437.142C80.3025 436.357 81.8756 435.02 83.0875 433.467Z" fill="white"/>
<path d="M40.4048 430.55C39.3736 429.944 38.4705 429.213 37.5908 428.455C36.7227 427.686 35.8895 426.885 35.1787 425.965C36.2099 426.572 37.113 427.302 37.9928 428.06C38.855 428.834 39.6882 429.63 40.4048 430.55Z" fill="#E6E6E6"/>
<path d="M39.9682 431.383C38.8729 431.237 37.8358 430.934 36.8162 430.593C35.8025 430.236 34.8062 429.846 33.8682 429.3C34.9635 429.446 36.0006 429.749 37.0201 430.09C38.0339 430.442 39.0302 430.837 39.9682 431.383Z" fill="#E6E6E6"/>
<path d="M39.9681 432.217C38.8204 432.498 37.6609 432.617 36.5015 432.693C35.3421 432.753 34.1769 432.774 33 432.634C34.1478 432.352 35.3072 432.233 36.4666 432.157C37.626 432.092 38.7912 432.071 39.9681 432.217Z" fill="#E6E6E6"/>
<path d="M73.9406 415.13C72.519 416.131 71.1266 415.714 70.8935 416.38C70.6372 417.111 71.9481 418.659 73.5095 418.88C75.0767 419.102 75.6186 417.776 78.9512 416.174C81.3632 415.011 82.377 415.075 82.4352 414.507C82.5576 413.268 77.9024 411.076 75.9041 412.423C74.9078 413.089 75.2865 414.182 73.9406 415.13Z" fill="white"/>
<path d="M68.0033 427.416C67.4848 427.232 64.6707 430.577 65.7719 432.677C66.3487 433.776 67.9683 434.474 68.4985 434.095C68.5684 434.041 68.7432 433.884 68.6384 432.677C68.516 431.205 68.2014 430.701 68.0616 429.511C67.8926 428.06 68.2072 427.492 68.0033 427.416Z" fill="white"/>
<path d="M79.3884 424.093C77.9261 424.58 76.7783 425.954 76.7725 427.427C76.7725 430.008 80.3031 431.064 80.6935 431.178C82.2549 431.621 84.2999 431.518 84.6145 430.761C84.9 430.063 83.4435 429.473 83.3095 427.843C83.2046 426.561 84.0494 426.155 83.7464 425.343C83.3211 424.222 81.1538 423.497 79.3884 424.093Z" fill="white"/>
<path d="M44.1047 424.092C44.5766 424.769 46.2138 424.747 46.7207 424.092C46.8896 423.87 46.9304 423.605 46.7207 422.425C46.4294 420.78 46.2021 419.508 45.8467 419.508C45.602 419.508 45.5671 420.109 44.9728 421.592C44.2853 423.329 43.8425 423.708 44.1047 424.092Z" fill="white"/>
</g>
<g filter="url(#filter0_d)">
<path d="M305.524 112.945C287.472 113.174 269.421 113.398 251.364 113.627C245.609 110.013 244.554 102.696 247.865 98.5132C251.331 94.1333 259.394 93.4323 264.348 98.5132C262.531 90.1016 268.54 82.1024 276.593 81.1036C283.987 80.1873 291.353 85.3827 292.747 93.1254C298.577 89.7763 306.122 91.728 309.409 97.2258C312.56 102.485 310.911 109.467 305.524 112.945Z" fill="white"/>
</g>
<g filter="url(#filter1_d)">
<path d="M90.6317 48.9539C68.2999 49.2417 45.9681 49.5237 23.6364 49.8115C16.5168 45.2702 15.2117 36.0782 19.3075 30.8232C23.5956 25.3207 33.57 24.44 39.6992 30.8232C37.4502 20.2556 44.8845 10.206 54.8472 8.95122C63.9944 7.80006 73.1065 14.3271 74.8311 24.0544C82.0439 19.8469 91.3774 22.2989 95.4441 29.2058C99.336 35.8135 97.2968 44.5853 90.6317 48.9539Z" fill="white"/>
</g>
<defs>
<filter id="filter0_d" x="238" y="72.999" width="89" height="56.6284" filterUnits="userSpaceOnUse" color-interpolation-filters="sRGB">
<feFlood flood-opacity="0" result="BackgroundImageFix"/>
<feColorMatrix in="SourceAlpha" type="matrix" values="0 0 0 0 0 0 0 0 0 0 0 0 0 0 0 0 0 0 127 0"/>
<feOffset dx="4" dy="4"/>
<feGaussianBlur stdDeviation="6"/>
<feColorMatrix type="matrix" values="0 0 0 0 0.775 0 0 0 0 0.8515 0 0 0 0 1 0 0 0 0.5 0"/>
<feBlend mode="normal" in2="BackgroundImageFix" result="effect1_dropShadow"/>
<feBlend mode="normal" in="SourceGraphic" in2="effect1_dropShadow" result="shape"/>
</filter>
<filter id="filter1_d" x="9" y="0.819824" width="104.408" height="64.9917" filterUnits="userSpaceOnUse" color-interpolation-filters="sRGB">
<feFlood flood-opacity="0" result="BackgroundImageFix"/>
<feColorMatrix in="SourceAlpha" type="matrix" values="0 0 0 0 0 0 0 0 0 0 0 0 0 0 0 0 0 0 127 0"/>
<feOffset dx="4" dy="4"/>
<feGaussianBlur stdDeviation="6"/>
<feColorMatrix type="matrix" values="0 0 0 0 0.775 0 0 0 0 0.8515 0 0 0 0 1 0 0 0 0.5 0"/>
<feBlend mode="normal" in2="BackgroundImageFix" result="effect1_dropShadow"/>
<feBlend mode="normal" in="SourceGraphic" in2="effect1_dropShadow" result="shape"/>
</filter>
<clipPath id="clip0">
<rect width="371" height="324" fill="white" transform="translate(0 125)"/>
</clipPath>
</defs>
</svg>
