<svg width="27" height="28" viewBox="0 0 27 28" fill="none" xmlns="http://www.w3.org/2000/svg">
<path d="M27 13.9302C27 17.5106 25.5777 20.9444 23.0459 23.4761C20.5142 26.0079 17.0804 27.4302 13.5 27.4302C9.91958 27.4302 6.4858 26.0079 3.95406 23.4761C1.42232 20.9444 0 17.5106 0 13.9302C0 10.3498 1.42232 6.91598 3.95406 4.38423C6.4858 1.85249 9.91958 0.430176 13.5 0.430176C17.0804 0.430176 20.5142 1.85249 23.0459 4.38423C25.5777 6.91598 27 10.3498 27 13.9302ZM13.9843 10.3966C12.6714 10.9433 10.0457 12.0739 6.11044 13.7884C5.47256 14.0415 5.13675 14.2913 5.10638 14.5343C5.05575 14.9444 5.57044 15.1064 6.27075 15.3274L6.56606 15.4202C7.25456 15.6447 8.18269 15.9062 8.66362 15.9164C9.10237 15.9265 9.59006 15.7476 10.1284 15.3764C13.8054 12.8941 15.7039 11.6402 15.822 11.6132C15.9064 11.593 16.0245 11.5694 16.1021 11.6402C16.1814 11.7094 16.173 11.8427 16.1646 11.8782C16.1139 12.0959 14.094 13.9724 13.0494 14.9444C12.7237 15.2481 12.4926 15.4624 12.4453 15.5114C12.3413 15.6177 12.2355 15.7223 12.1281 15.8252C11.4868 16.4429 11.0076 16.9052 12.1534 17.6612C12.7052 18.0257 13.1473 18.3244 13.5877 18.6248C14.067 18.9522 14.5463 19.2779 15.1673 19.6862C15.3242 19.7875 15.4761 19.8972 15.6229 20.0018C16.1814 20.4 16.686 20.7578 17.3053 20.7004C17.6664 20.6667 18.0394 20.3292 18.2284 19.3167C18.6756 16.9255 19.5548 11.7466 19.7573 9.61186C19.7696 9.43441 19.7622 9.25613 19.7353 9.0803C19.7194 8.93842 19.6508 8.8077 19.5429 8.71411C19.3894 8.60812 19.2063 8.55321 19.0198 8.55718C18.5136 8.56561 17.7322 8.8373 13.9843 10.3966Z" fill="white"/>
</svg>
