<svg width="626" height="632" viewBox="0 0 626 632" fill="none" xmlns="http://www.w3.org/2000/svg">
<path fill-rule="evenodd" clip-rule="evenodd" d="M440.831 9.55212C524.64 46.1269 610.562 171.914 623.749 262.827C636.259 349.074 553.832 413.453 501.176 483.147C461.059 536.243 421.917 590.156 359.485 612.597C294.438 635.978 219.697 640.959 160.643 605.55C103.731 571.426 92.552 499.396 67.7115 437.651C38.8738 365.971 -18.9663 296.197 6.74117 223.007C34.2112 144.8 125.101 105.115 203.14 77.9623C284.045 49.8123 362.614 -24.5826 440.831 9.55212Z" fill="#44AD4E" fill-opacity="0.2"/>
<g clip-path="url(#clip0_1109_2383)">
<path d="M440.188 424.463C446.086 458.975 451.976 493.488 457.873 528C459.665 528 461.464 528 463.256 528C459.411 493.488 455.567 458.975 451.722 424.463C447.877 424.463 444.033 424.463 440.188 424.463Z" fill="#B3B3B3"/>
<path d="M410.854 424.463C404.956 458.975 399.066 493.488 393.168 528C391.377 528 389.577 528 387.786 528C391.63 493.488 395.475 458.975 399.32 424.463C403.164 424.463 407.009 424.463 410.854 424.463Z" fill="#B3B3B3"/>
<path d="M425.579 284.113C431.715 278.146 444.341 265.868 457.874 268.774C469.361 271.236 475.513 283.354 479.403 291.016C485.639 303.294 487 314.714 487.477 332.814C488.646 376.921 488.969 398.725 475.943 412.576C468.523 420.46 459.834 423.205 449.8 426.38C419.95 435.814 393.407 428.374 381.366 424.08C386.61 385.127 394.076 353.621 400.589 330.513C404.218 317.644 409.77 299.483 425.579 284.113Z" fill="#CCCCCC"/>
<path d="M427.886 264.173C431.723 262.831 435.206 262.716 437.566 262.831C441.388 269.971 444.541 271.374 446.724 271.459C451.346 271.635 453.437 264.97 459.027 264.556C462.672 264.28 465.832 266.75 467.87 268.774C471.445 277.533 475.951 291.821 475.943 309.806C475.928 334.869 467.139 353.659 462.103 362.725C445.248 363.967 425.887 363.2 405.203 358.123C402.304 357.41 399.489 356.643 396.744 355.822C412 304.514 415.937 291.392 415.967 291.399C415.998 291.407 413.322 300.25 409.047 315.174C404.249 331.932 404.234 332.415 403.665 333.581C399.413 342.301 382.442 349.464 325.619 341.634C327.157 328.082 328.695 314.538 330.233 300.986C349.071 299.836 367.91 298.685 386.748 297.535C389.163 296.538 392.969 294.751 397.129 291.783C403.157 287.472 404.541 284.504 414.814 274.143C421.227 267.678 423.933 265.561 427.886 264.173Z" fill="#44AD4E"/>
<path d="M77.2576 344.701H347.918V355.439H77.2576V344.701Z" fill="#CCCCCC"/>
<path d="M439.419 208.953C434.706 212.704 433.637 217.957 432.499 223.525C431.646 227.69 429.754 237.621 435.575 246.533C436.844 248.474 439.327 251.587 444.033 254.203C442.241 257.523 440.442 260.852 438.65 264.173C438.712 264.917 438.935 266.259 439.804 267.624C441.05 269.58 442.856 270.362 443.648 270.692C446.84 272.019 449.869 271.121 451.338 270.692C455.759 269.388 458.373 266.328 459.411 264.94C459.573 261.289 460.134 258.306 460.565 256.12C460.88 254.548 461.357 252.722 462.103 250.751C463.041 248.267 464.156 246.219 465.178 244.616C466.086 245.091 467.839 245.812 469.792 245.383C473.852 244.478 477.02 238.941 475.174 234.646C474.067 232.069 471.345 230.366 468.254 230.044C471.237 222.321 468.708 213.509 462.103 208.57C454.698 203.04 445.025 204.497 439.419 208.953Z" fill="#FFCABA"/>
<path d="M459.027 218.54C457.928 217.842 456.275 217.313 455.952 217.773C455.598 218.272 456.797 219.92 458.258 220.841C459.358 221.539 461.011 222.068 461.334 221.608C461.688 221.117 460.488 219.46 459.027 218.54Z" fill="#144460" stroke="#144460" stroke-miterlimit="10"/>
<path d="M430.577 213.938C428.816 213.118 427.033 211.415 426.733 209.337C426.341 206.645 428.47 203.615 432.115 201.667C429.409 200.095 427.894 197.342 428.271 194.765C428.717 191.735 431.823 190.271 433.653 189.396C437.797 187.425 441.873 188.177 443.649 188.629C448.355 184.265 455.06 183.069 460.565 185.562C467.216 188.576 468.847 195.501 469.023 196.299C469.946 196.329 477.458 196.69 481.326 202.434C485.348 208.409 483.848 217.873 476.713 223.909C477.005 224.215 478.304 225.642 478.25 227.743C478.204 229.484 477.235 231.586 475.175 232.345C472.814 233.212 470.723 231.701 470.561 231.578C468.616 233.748 467.824 234.07 467.486 233.879C466.463 233.304 469.885 228.203 469.023 221.608C468.893 220.603 468.362 217.136 465.948 213.938C462.003 208.723 455.221 207.887 454.414 207.803C443.318 206.606 437.451 217.136 430.577 213.938Z" fill="#144460" stroke="#144460" stroke-miterlimit="10"/>
<path d="M443.649 215.173C444.956 215.135 446.64 215.518 446.686 216.078C446.74 216.684 444.856 217.489 443.134 217.543C441.827 217.581 440.143 217.198 440.097 216.638C440.043 216.032 441.919 215.227 443.649 215.173Z" fill="#144460" stroke="#144460" stroke-miterlimit="10"/>
<path d="M455.768 224.438C456.545 224.491 457.152 226.041 457.114 227.298C457.067 228.97 455.876 230.642 455.084 230.451C454.284 230.259 453.83 228.18 454.199 226.608C454.415 225.711 455.037 224.392 455.768 224.438Z" fill="#144460" stroke="#144460" stroke-miterlimit="10"/>
<path d="M443.803 222.022C444.58 222.075 445.187 223.625 445.149 224.882C445.103 226.554 443.911 228.226 443.119 228.035C442.319 227.843 441.865 225.764 442.234 224.192C442.45 223.295 443.073 221.976 443.803 222.022Z" fill="#144460" stroke="#144460" stroke-miterlimit="10"/>
<path d="M448.646 228.894C448.654 231.509 447.878 232.797 447.109 233.495C446.424 234.116 445.671 234.316 445.571 235.029C445.417 236.072 446.824 237.115 447.109 237.33C447.685 237.759 448.254 237.982 448.646 238.097" stroke="#144460" stroke-miterlimit="10"/>
<path d="M215.824 476.462C208.642 482.513 201.453 488.564 194.271 494.615C177.194 482.168 162.684 472.267 151.996 465.157C132.312 452.065 119.525 444.411 121.109 439.265C122.262 435.515 130.52 434.848 135.08 434.479C144.23 433.735 150.543 436.09 161.861 439.61C167.736 441.436 176.694 444.12 188.058 447.096C197.316 456.882 206.574 466.676 215.824 476.462Z" fill="#44AD4E"/>
<path d="M467.871 269.541C468.932 269.595 470.954 270.17 474.022 275.677C484.141 293.815 478.651 316.977 474.022 335.498C471.93 343.881 470.877 348.068 469.408 350.07C460.112 362.694 439.52 361.29 400.59 358.123C366.58 355.354 340.775 353.138 327.542 351.987C331.771 336.012 336 320.029 340.23 304.054C358.868 304.483 378.237 305.342 398.283 306.738C413.331 307.789 427.94 309.077 442.112 310.573C443.849 307.543 446.571 302.735 449.801 296.768C460.127 277.671 463.357 269.311 467.871 269.541Z" fill="#44AD4E"/>
<path d="M452.875 243.082C452.175 243.419 450.13 244.301 447.493 243.849C445.032 243.427 443.456 242.093 442.879 241.548" stroke="#144460" stroke-miterlimit="10"/>
<path d="M460.564 266.09C455.697 272.241 448.354 274.573 442.879 272.226C439.342 270.707 437.497 267.639 436.728 266.09" stroke="#144460" stroke-miterlimit="10"/>
<path d="M125.936 309.062C125.16 310.066 123.945 311.577 122.307 313.28C118.078 317.697 116.34 317.92 112.934 321.417C110.05 324.385 106.706 327.806 106.89 332.269C106.998 334.908 108.282 336.994 109.305 338.297C106.867 340.33 106.26 343.812 107.79 346.435C109.443 349.265 113.18 350.377 116.256 348.843C117.986 349.748 122.169 351.627 127.743 351.251C133.618 350.86 137.67 348.183 139.231 347.033C141.515 348.636 148.235 352.908 156.762 351.857C168.189 350.446 180.56 339.755 178.83 326.233C177.354 314.737 166.289 305.864 154.948 306.638C144.283 307.367 138.201 316.294 137.416 317.49C137.324 316.44 137.139 315.213 136.809 313.87C136.463 312.475 136.025 311.263 135.602 310.25C133.387 312.659 131.165 315.074 128.95 317.483C127.951 314.691 126.944 311.876 125.936 309.062Z" fill="#415465"/>
<path d="M110.827 325.344C110.873 326.257 111.18 326.962 111.703 327.484C112.226 328.005 112.933 328.312 113.849 328.358C113.479 328.642 112.972 328.749 112.48 328.68C111.988 328.619 111.519 328.381 111.157 328.028C110.804 327.668 110.558 327.2 110.504 326.709C110.435 326.218 110.542 325.712 110.827 325.344Z" fill="#F5FFF9"/>
<path d="M118.685 330.168C119.392 330.735 120.146 331.196 120.953 331.449C121.76 331.702 122.598 331.748 123.421 331.594C124.244 331.456 125.028 331.119 125.759 330.666C126.489 330.214 127.135 329.623 127.758 328.956C127.058 330.628 125.459 332.001 123.56 332.346C122.614 332.507 121.606 332.407 120.738 332.001C119.861 331.602 119.146 330.95 118.685 330.168Z" fill="#F5FFF9"/>
<path d="M124.729 321.126C125.236 320.29 125.897 319.638 126.597 319.024C127.312 318.426 128.058 317.882 128.965 317.506C128.458 318.342 127.797 318.994 127.097 319.607C126.382 320.198 125.628 320.75 124.729 321.126Z" fill="#F5FFF9"/>
<path d="M109.012 334.992C109.281 335.314 109.619 335.452 109.888 335.36C110.165 335.291 110.38 335.076 110.496 334.823L111.165 335.145C111.088 335.337 111.057 335.567 111.072 335.751C111.095 335.943 111.157 336.119 111.303 336.273C111.572 336.603 112.064 336.787 112.641 336.802C112.172 337.155 111.418 337.185 110.857 336.764C110.58 336.549 110.365 336.211 110.327 335.851C110.273 335.49 110.342 335.161 110.488 334.839L111.157 335.161C110.919 335.606 110.434 335.928 109.919 335.897C109.665 335.882 109.412 335.767 109.258 335.59C109.096 335.414 109.019 335.199 109.012 334.992Z" fill="#F5FFF9"/>
<path d="M115.056 335.59C117.201 335.49 119.323 335.621 121.438 335.813C123.552 336.027 125.659 336.296 127.75 336.794C125.605 336.894 123.483 336.764 121.368 336.572C119.254 336.365 117.139 336.096 115.056 335.59Z" fill="#F5FFF9"/>
<path d="M115.056 336.802C116.901 337.331 118.639 338.075 120.361 338.865C122.068 339.678 123.752 340.545 125.336 341.626C123.491 341.097 121.753 340.353 120.031 339.563C118.324 338.742 116.64 337.876 115.056 336.802Z" fill="#F5FFF9"/>
<path d="M114.448 338.006C116.355 339.18 118.108 340.537 119.831 341.933C121.538 343.352 123.206 344.809 124.729 346.45C122.822 345.277 121.069 343.927 119.346 342.523C117.639 341.105 115.971 339.647 114.448 338.006Z" fill="#F5FFF9"/>
<path d="M109.611 338.612C110.657 339.317 111.657 339.931 112.756 340.33C113.848 340.744 115.002 340.928 116.263 341.02C115.094 341.534 113.702 341.495 112.487 341.043C111.28 340.583 110.211 339.732 109.611 338.612Z" fill="#F5FFF9"/>
<path d="M118.685 342.224C117.786 342.148 116.917 342.324 116.202 342.73C115.494 343.137 114.918 343.758 114.671 344.502C114.402 345.238 114.441 346.09 114.718 346.856C115.002 347.631 115.533 348.321 116.271 348.858C115.394 348.613 114.61 347.961 114.172 347.102C113.726 346.251 113.618 345.192 113.949 344.249C114.279 343.306 115.048 342.546 115.948 342.194C116.832 341.825 117.862 341.833 118.685 342.224Z" fill="#F5FFF9"/>
<path d="M134.402 322.928C135.071 322.046 135.686 321.248 136.171 320.359C136.678 319.477 137.04 318.541 137.424 317.506C137.647 318.595 137.386 319.753 136.84 320.735C136.286 321.709 135.44 322.529 134.402 322.928Z" fill="#F5FFF9"/>
<path d="M168.257 336.802C166.712 339.164 164.574 341.174 162.006 342.454C160.722 343.083 159.315 343.49 157.877 343.628C156.431 343.743 155.001 343.704 153.571 343.359C152.156 343.007 150.795 342.293 149.795 341.189C148.773 340.107 148.15 338.712 147.819 337.308C147.135 334.478 147.404 331.587 146.943 328.887C146.72 327.56 146.182 326.249 145.044 325.628C143.929 324.976 142.498 325.06 141.214 325.459C140.568 325.658 139.922 325.927 139.361 326.272C139.1 326.471 138.8 326.64 138.562 326.87C138.331 327.116 138.054 327.315 137.869 327.591C137.024 328.634 136.485 329.923 136.162 331.265C135.84 332.607 135.732 334.003 135.732 335.398C135.747 336.794 135.863 338.19 136.193 339.548C136.808 342.278 138.077 344.855 139.853 347.048C137.939 344.962 136.578 342.385 135.832 339.64C135.455 338.259 135.309 336.833 135.255 335.414C135.224 333.987 135.286 332.553 135.593 331.142C135.893 329.738 136.432 328.343 137.362 327.185C137.57 326.878 137.869 326.648 138.123 326.379C138.392 326.126 138.715 325.934 139.015 325.704C139.653 325.313 140.322 325.029 141.022 324.807C142.398 324.37 144.036 324.224 145.428 325.006C146.112 325.375 146.666 325.988 147.02 326.655C147.381 327.33 147.581 328.051 147.719 328.764C148.173 331.633 147.881 334.47 148.519 337.162C148.819 338.497 149.38 339.77 150.303 340.752C151.21 341.749 152.425 342.439 153.74 342.799C155.055 343.152 156.485 343.229 157.854 343.152C159.23 343.053 160.591 342.692 161.86 342.117C164.397 340.974 166.573 339.057 168.257 336.802Z" fill="#F5FFF9"/>
<path d="M109.012 332.576C107.597 331.694 106.344 330.636 105.129 329.539C103.929 328.427 102.76 327.269 101.761 325.942C103.176 326.824 104.429 327.882 105.651 328.979C106.843 330.091 108.004 331.249 109.012 332.576Z" fill="#E6E6E6"/>
<path d="M108.404 333.788C106.89 333.573 105.459 333.128 104.045 332.645C102.637 332.131 101.253 331.564 99.9385 330.774C101.453 330.989 102.883 331.426 104.298 331.917C105.705 332.43 107.097 332.998 108.404 333.788Z" fill="#E6E6E6"/>
<path d="M108.405 334.992C106.813 335.391 105.206 335.559 103.591 335.675C101.976 335.767 100.362 335.797 98.7314 335.59C100.323 335.184 101.93 335.015 103.545 334.908C105.16 334.823 106.774 334.793 108.405 334.992Z" fill="#E6E6E6"/>
<path d="M155.562 310.266C153.586 311.715 151.656 311.117 151.333 312.076C150.98 313.134 152.794 315.374 154.963 315.696C157.139 316.018 157.892 314.101 162.521 311.777C165.866 310.097 167.281 310.189 167.358 309.369C167.527 307.574 161.068 304.406 158.292 306.354C156.9 307.313 157.431 308.901 155.562 310.266Z" fill="#F5FFF9"/>
<path d="M147.312 328.044C146.59 327.775 142.683 332.614 144.214 335.652C145.013 337.247 147.266 338.251 147.997 337.699C148.097 337.623 148.335 337.4 148.197 335.652C148.028 333.519 147.589 332.791 147.397 331.065C147.166 328.979 147.605 328.151 147.312 328.044Z" fill="#F5FFF9"/>
<path d="M163.114 323.235C161.084 323.94 159.484 325.927 159.484 328.059C159.484 331.794 164.382 333.328 164.928 333.489C167.097 334.133 169.934 333.98 170.372 332.883C170.772 331.871 168.742 331.019 168.558 328.665C168.412 326.809 169.588 326.218 169.165 325.045C168.581 323.427 165.574 322.376 163.114 323.235Z" fill="#F5FFF9"/>
<path d="M114.148 323.235C114.802 324.217 117.078 324.186 117.778 323.235C118.016 322.92 118.07 322.529 117.778 320.827C117.37 318.449 117.055 316.609 116.571 316.609C116.232 316.609 116.178 317.483 115.363 319.623C114.394 322.13 113.779 322.683 114.148 323.235Z" fill="#F5FFF9"/>
<path d="M471.33 272.226C469.938 269.894 468.4 268.621 466.717 268.391C460.165 267.509 451.453 282.595 440.573 313.64C428.34 313.111 415.775 312.36 402.896 311.34C380.882 309.599 359.844 307.237 339.844 304.437C336.515 317.222 333.178 329.999 329.848 342.784" stroke="#144460" stroke-miterlimit="10"/>
<path d="M269.104 485.435C266.282 494.385 263.467 503.327 260.645 512.278C239.538 510.889 221.969 510.276 209.128 509.977C185.476 509.432 170.566 509.793 169.144 504.608C168.106 500.827 174.726 495.85 178.371 493.104C185.699 487.59 192.296 486.202 203.745 483.134C209.689 481.539 218.701 479.023 229.889 475.465C242.96 478.793 256.032 482.114 269.104 485.435Z" fill="#44AD4E"/>
<path d="M469.791 348.92C468.284 350.408 465.993 352.425 462.871 354.288C455.827 358.491 448.915 359.312 440.572 359.657C432.045 360.01 420.272 359.925 405.971 358.123" stroke="#144460" stroke-miterlimit="10"/>
<path d="M418.273 288.331C416.982 290.441 415.628 293.002 414.429 296.001C412.691 300.349 411.814 304.322 411.353 307.505" stroke="#144460" stroke-miterlimit="10"/>
<path d="M472.482 238.097C470.945 238.864 469.407 239.631 467.869 240.398C468.384 239.378 468.892 238.35 469.407 237.33" stroke="#144460" stroke-miterlimit="10"/>
<path d="M444.034 254.203C445.295 254.786 447.125 255.46 449.416 255.737C452.8 256.143 455.537 255.476 457.105 254.97C455.798 255.905 452.823 257.754 448.647 258.037C446.018 258.221 443.865 257.715 442.496 257.27C443.011 256.25 443.519 255.23 444.034 254.203Z" fill="#144460"/>
<path d="M201.823 465.878C195.671 457.442 189.52 449.005 183.369 440.569C206.198 408.818 231.472 393.318 245.651 386.116C261.383 378.125 275.524 374.213 282.559 372.311C303.267 366.705 315.9 366.659 347.918 363.875C361.466 362.702 381.289 360.792 405.587 357.74C408.916 358.506 413.608 359.112 416.938 359.879C345.682 395.158 273.079 430.599 201.823 465.878Z" fill="#465B65"/>
<path d="M462.488 362.341C462.849 368.523 462.626 381.001 454.799 392.252C450.393 398.579 444.218 403.618 428.655 410.658C409.955 419.118 396.599 421.94 384.827 425.23C362.259 431.542 320.076 443.338 297.17 476.615C292.91 482.804 290.242 488.388 288.712 491.954C272.049 487.352 255.394 482.751 238.732 478.149C224.891 476.615 211.051 475.081 197.21 473.547C237.709 412.154 274.141 392.267 301.014 386.116C311.018 383.831 335.424 379.843 377.138 370.01C393.969 366.045 407.802 362.494 417.122 360.04C422.612 361.375 429.071 362.541 436.345 363.108C446.479 363.906 455.36 363.323 462.488 362.341Z" fill="#465B65"/>
<path d="M108.015 355.439C99.4566 412.192 90.8985 468.946 82.3404 525.699C80.5488 525.699 78.7495 525.699 76.9579 525.699C83.7244 468.946 90.4832 412.192 97.2498 355.439C100.841 355.439 104.424 355.439 108.015 355.439Z" fill="#B3B3B3"/>
<path d="M443.648 391.868C442.457 392.589 441.134 393.379 439.681 394.215" stroke="#144460" stroke-miterlimit="10"/>
<path d="M431.869 398.533C427.086 401.049 421.496 403.771 415.199 406.448C387.518 418.205 372.032 418.121 350.609 425.621C338.883 429.724 322.821 436.995 304.959 450.93" stroke="#144460" stroke-miterlimit="10" stroke-dasharray="11.61 11.61"/>
<path d="M301.467 453.714C300.298 454.673 299.122 455.662 297.937 456.675" stroke="#144460" stroke-miterlimit="10"/>
<path d="M401.357 362.725C393.207 364.987 381.004 368.147 365.987 371.161C345.188 375.333 336.153 375.77 324.465 378.063C295.323 383.785 274.255 396.217 266.027 401.072C233.386 420.329 213.087 446.612 201.438 465.495" stroke="#144460" stroke-miterlimit="10"/>
<path d="M329.91 307.29C322.598 307.727 316.546 308.326 312.225 308.824C293.632 310.956 286.474 313.426 280.699 317.26C277.17 319.6 273.571 322.844 273.01 327.231C272.933 327.852 272.602 330.383 273.779 331.065C275.455 332.039 278.623 328.327 283.775 324.93C286.766 322.959 290.549 321.003 295.309 319.561C290.818 321.532 287.189 323.442 284.544 324.93C279.2 327.936 277.347 329.524 276.855 331.832C276.816 332.024 276.293 334.754 277.623 335.667C279.207 336.748 282.068 334.348 289.926 329.531C295.985 325.819 299.192 324.24 299.153 324.163C299.123 324.109 297.377 325.26 289.926 329.531C286.182 331.679 283.813 332.998 283.006 335.667C282.76 336.48 282.314 337.945 283.006 338.735C285.713 341.833 303.029 331.119 302.998 331.065C302.99 331.05 301.968 331.571 299.922 332.599C298.969 333.082 296.185 334.501 293.002 336.434C287.212 339.954 286.389 341.35 286.082 342.569C285.874 343.382 285.651 344.264 286.082 344.87C288.55 348.337 309.188 338.06 309.149 337.968C309.134 337.922 304.259 340.077 300.691 341.802C294.309 344.886 293.702 345.791 293.771 346.404C293.925 347.769 297.454 348.528 299.153 348.705C302.706 349.081 308.988 349.249 318.376 347.171C322.221 333.88 326.066 320.581 329.91 307.29Z" fill="#FFCABA"/>
<path d="M329.91 307.29C322.206 307.72 314.509 308.395 306.85 309.392C303.021 309.898 299.199 310.481 295.424 311.301C291.656 312.137 287.896 313.188 284.405 314.906C282.66 315.757 280.991 316.762 279.423 317.897C277.854 319.04 276.362 320.313 275.155 321.854C273.948 323.388 273.048 325.206 272.787 327.177C272.664 328.143 272.587 329.14 272.864 330.137C273.002 330.62 273.31 331.173 273.887 331.364C274.448 331.564 275.001 331.387 275.463 331.203C276.378 330.774 277.154 330.183 277.931 329.608L280.215 327.836C281.737 326.655 283.29 325.528 284.921 324.523C288.181 322.506 291.718 320.949 295.393 319.845L295.201 319.331C291.602 320.903 288.073 322.644 284.644 324.562C282.929 325.528 281.222 326.502 279.615 327.683C278.823 328.281 278.046 328.941 277.447 329.785C276.831 330.613 276.493 331.664 276.432 332.668C276.393 333.174 276.393 333.688 276.478 334.21C276.57 334.724 276.747 335.26 277.147 335.698C277.539 336.135 278.2 336.327 278.746 336.25C279.3 336.188 279.776 335.989 280.245 335.797C282.068 334.938 283.683 333.834 285.359 332.806C288.665 330.705 291.995 328.649 295.393 326.717L297.954 325.283C298.384 325.045 298.8 324.822 299.253 324.554C299.292 324.523 299.299 324.531 299.384 324.454C299.692 324.301 299.276 323.588 298.992 323.856L298.923 323.887C298.838 323.925 298.8 323.956 298.738 323.986L298.415 324.171L297.785 324.546L292.717 327.514L287.619 330.452C286.774 330.958 285.928 331.487 285.136 332.116C284.352 332.745 283.606 333.496 283.121 334.424C282.875 334.877 282.691 335.391 282.56 335.859C282.422 336.342 282.299 336.84 282.268 337.385C282.245 337.906 282.314 338.551 282.76 339.026C283.206 339.509 283.821 339.624 284.344 339.663C285.42 339.724 286.405 339.486 287.366 339.218C288.327 338.942 289.257 338.597 290.172 338.229C293.832 336.725 297.292 334.854 300.691 332.883L301.96 332.131L302.59 331.748L302.906 331.548L303.067 331.449L303.175 331.372C303.275 331.311 303.359 331.088 303.313 330.973C303.236 330.713 302.552 330.766 302.829 330.782L300.184 332.108C298.43 332.99 296.693 333.918 294.993 334.9C293.294 335.882 291.61 336.902 289.98 338.014C289.165 338.574 288.365 339.164 287.619 339.831C286.889 340.499 286.143 341.281 285.836 342.324C285.705 342.815 285.574 343.283 285.536 343.827C285.482 344.349 285.651 345.031 286.166 345.392C287.173 346.028 288.258 345.913 289.234 345.821C291.226 345.568 293.117 344.993 294.986 344.372C298.715 343.106 302.329 341.542 305.881 339.885C306.773 339.463 307.658 339.041 308.534 338.597C308.757 338.482 308.972 338.374 309.195 338.252C309.188 338.252 309.257 338.236 309.334 338.129C309.395 338.021 309.395 337.906 309.365 337.86C309.326 337.791 309.149 337.699 309.049 337.738C308.934 337.768 308.995 337.753 308.957 337.768L308.78 337.837L308.442 337.983L307.096 338.574C305.305 339.371 303.521 340.192 301.752 341.036C299.984 341.879 298.215 342.738 296.493 343.704C295.639 344.203 294.778 344.678 294.017 345.399C293.832 345.583 293.648 345.798 293.556 346.113C293.479 346.442 293.594 346.757 293.755 346.995C294.101 347.462 294.571 347.7 295.024 347.923C296.877 348.728 298.884 348.966 300.845 349.081C302.813 349.203 304.782 349.18 306.75 349.073C310.679 348.843 314.578 348.222 318.415 347.37L318.53 347.347L318.561 347.24L329.91 307.29ZM329.91 307.29L318.192 347.117L318.338 346.979C314.516 347.808 310.641 348.413 306.735 348.628C304.782 348.736 302.829 348.743 300.883 348.621C298.946 348.506 296.985 348.252 295.232 347.485C294.817 347.286 294.386 347.041 294.148 346.711C294.032 346.55 293.986 346.358 294.017 346.205C294.063 346.044 294.194 345.867 294.355 345.706C295.024 345.07 295.893 344.586 296.731 344.103C298.43 343.152 300.199 342.301 301.968 341.465C303.736 340.629 305.52 339.824 307.312 339.026L308.657 338.443L308.995 338.305L309.157 338.244C309.149 338.244 309.234 338.221 309.149 338.244C309.072 338.267 308.926 338.175 308.919 338.098C308.896 338.052 308.849 337.96 308.896 337.868C308.949 337.776 308.988 337.776 308.957 337.791C308.757 337.906 308.534 338.014 308.319 338.121C307.45 338.558 306.566 338.98 305.674 339.394C302.121 341.036 298.515 342.577 294.817 343.819C292.971 344.433 291.087 344.993 289.18 345.223C288.25 345.323 287.212 345.346 286.543 344.901C285.889 344.441 286.189 343.367 286.435 342.485C286.681 341.618 287.343 340.92 288.042 340.276C288.757 339.64 289.542 339.064 290.341 338.52C291.948 337.431 293.625 336.419 295.324 335.445C297.023 334.478 298.746 333.558 300.499 332.684L303.113 331.38C303.405 331.387 302.783 331.41 302.683 331.165C302.613 331.073 302.675 330.866 302.752 330.828C302.783 330.805 302.721 330.851 302.706 330.858L302.56 330.95L302.252 331.142L301.629 331.525L300.368 332.269C296.985 334.217 293.525 336.073 289.926 337.538C289.027 337.899 288.112 338.229 287.189 338.489C286.266 338.742 285.313 338.957 284.421 338.896C283.982 338.865 283.56 338.758 283.329 338.489C283.091 338.244 283.014 337.83 283.037 337.393C283.06 336.955 283.167 336.495 283.306 336.043C283.437 335.575 283.59 335.161 283.813 334.754C284.698 333.136 286.381 332.062 288.027 331.065L293.11 328.12L298.177 325.129L298.807 324.753L299.123 324.569L299.261 324.493C299.269 324.493 299.276 324.485 299.276 324.485C299.023 324.746 298.646 324.032 298.915 323.91C298.953 323.879 298.907 323.91 298.9 323.917C298.507 324.148 298.061 324.393 297.639 324.631L295.07 326.08C291.664 328.036 288.327 330.107 285.028 332.216C283.367 333.251 281.737 334.363 280.007 335.176C279.577 335.352 279.131 335.537 278.708 335.583C278.285 335.629 277.908 335.521 277.631 335.23C277.085 334.624 277.016 333.604 277.078 332.684C277.131 331.74 277.424 330.858 277.969 330.107C278.508 329.347 279.238 328.718 279.999 328.136C281.545 326.985 283.252 326.011 284.944 325.045C288.35 323.127 291.856 321.387 295.432 319.807L295.239 319.293C291.533 320.428 287.95 322.008 284.659 324.063C283.014 325.091 281.445 326.234 279.923 327.422L277.647 329.202C276.885 329.777 276.109 330.36 275.278 330.751C274.863 330.927 274.417 331.042 274.056 330.912C273.679 330.797 273.448 330.413 273.317 329.992C273.071 329.125 273.133 328.159 273.248 327.223C273.494 325.352 274.348 323.603 275.509 322.115C276.678 320.612 278.139 319.354 279.676 318.227C281.23 317.099 282.875 316.102 284.59 315.259C288.035 313.556 291.749 312.482 295.501 311.608C299.261 310.757 303.067 310.136 306.889 309.599C314.524 308.533 322.213 307.789 329.91 307.29Z" fill="#144460"/>
<path d="M282.559 478.149C273.332 474.767 262.236 471.423 249.495 468.946C236.869 466.491 225.42 465.441 215.662 465.111" stroke="#144460" stroke-miterlimit="10"/>
<path d="M316.393 355.439C325.366 412.192 334.332 468.946 343.305 525.699C345.097 525.699 346.896 525.699 348.688 525.699C341.767 468.946 334.847 412.192 327.927 355.439C324.082 355.439 320.237 355.439 316.393 355.439Z" fill="#B3B3B3"/>
<path d="M338.307 311.34C331.556 311.777 325.819 312.36 321.39 312.873C302.713 315.044 295.639 317.475 289.865 321.31C286.335 323.649 282.737 326.893 282.175 331.28C282.098 331.901 281.768 334.432 282.944 335.115C284.621 336.089 287.788 332.377 292.94 328.979C295.931 327.008 299.714 325.052 304.474 323.611C299.984 325.582 296.354 327.491 293.709 328.979C288.365 331.986 286.512 333.573 286.02 335.882C285.982 336.073 285.459 338.804 286.789 339.716C288.373 340.798 291.233 338.397 299.092 333.581C305.151 329.869 308.357 328.289 308.319 328.212C308.288 328.159 306.542 329.309 299.092 333.581C295.347 335.728 292.979 337.047 292.171 339.716C291.925 340.529 291.479 341.994 292.171 342.784C294.878 345.883 312.194 335.168 312.163 335.115C312.156 335.099 311.133 335.621 309.088 336.649C308.134 337.132 305.351 338.551 302.167 340.483C296.377 344.004 295.555 345.399 295.247 346.619C295.039 347.432 294.816 348.314 295.247 348.92C297.715 352.386 318.353 342.109 318.315 342.017C318.299 341.971 313.424 344.126 309.857 345.852C303.474 348.935 302.867 349.84 302.936 350.454C303.09 351.819 306.619 352.578 308.319 352.754C311.871 353.13 318.153 353.299 327.542 351.22C331.133 337.929 334.716 324.638 338.307 311.34Z" fill="#FFCABA"/>
<path d="M338.307 311.34C330.664 311.807 323.044 312.513 315.447 313.525C311.656 314.047 307.865 314.622 304.12 315.466C300.391 316.309 296.662 317.375 293.225 319.116C291.51 319.983 289.865 321.003 288.319 322.138C286.774 323.281 285.32 324.585 284.144 326.134C282.967 327.668 282.145 329.524 281.922 331.464C281.822 332.423 281.76 333.42 282.098 334.409C282.275 334.885 282.691 335.391 283.275 335.483C283.852 335.583 284.351 335.368 284.797 335.161C285.689 334.716 286.458 334.125 287.22 333.55L289.48 331.786C290.987 330.62 292.533 329.501 294.147 328.504C297.385 326.51 300.899 324.976 304.536 323.871L304.343 323.358C300.745 324.93 297.215 326.671 293.786 328.588C292.071 329.554 290.364 330.528 288.757 331.71C287.965 332.308 287.189 332.967 286.589 333.811C285.974 334.639 285.636 335.69 285.574 336.695C285.536 337.201 285.536 337.715 285.62 338.236C285.712 338.75 285.889 339.287 286.289 339.724C286.681 340.161 287.343 340.353 287.888 340.276C288.442 340.215 288.919 340.015 289.388 339.824C291.21 338.965 292.825 337.86 294.501 336.833C297.808 334.731 301.137 332.676 304.536 330.743L307.096 329.309C307.527 329.071 307.942 328.849 308.396 328.58C308.434 328.55 308.442 328.557 308.526 328.481C308.834 328.327 308.419 327.614 308.134 327.882L308.065 327.913C307.98 327.951 307.942 327.982 307.88 328.013L307.557 328.197L306.927 328.573L301.86 331.541L296.762 334.478C295.916 334.984 295.07 335.514 294.278 336.142C293.494 336.771 292.748 337.523 292.264 338.451C292.018 338.903 291.833 339.417 291.702 339.885C291.564 340.368 291.441 340.867 291.41 341.411C291.387 341.933 291.456 342.577 291.902 343.053C292.348 343.536 292.963 343.651 293.486 343.689C294.563 343.75 295.547 343.513 296.508 343.244C297.469 342.968 298.4 342.623 299.315 342.255C302.975 340.752 306.435 338.88 309.833 336.909L311.102 336.158L311.733 335.774L312.048 335.575L312.209 335.475L312.317 335.398C312.417 335.337 312.502 335.115 312.455 335C312.379 334.739 311.694 334.793 311.971 334.808L309.326 336.135C307.573 337.017 305.835 337.945 304.136 338.926C302.436 339.908 300.753 340.928 299.122 342.04C298.307 342.6 297.508 343.191 296.762 343.858C296.031 344.525 295.285 345.307 294.978 346.35C294.847 346.841 294.716 347.309 294.678 347.854C294.624 348.375 294.793 349.058 295.309 349.418C295.801 349.763 296.339 349.848 296.854 349.901C297.369 349.932 297.877 349.901 298.377 349.848C300.368 349.595 302.26 349.019 304.128 348.398C307.857 347.133 311.471 345.568 315.024 343.911C315.916 343.49 316.8 343.068 317.676 342.623C317.899 342.508 318.115 342.401 318.338 342.278C318.33 342.278 318.399 342.263 318.476 342.155C318.538 342.048 318.538 341.933 318.507 341.887C318.468 341.818 318.292 341.726 318.192 341.764C318.076 341.795 318.138 341.779 318.099 341.795L317.923 341.864L317.584 342.01L316.239 342.6C314.447 343.398 312.663 344.218 310.895 345.062C309.126 345.906 307.358 346.765 305.635 347.731C304.782 348.229 303.92 348.705 303.159 349.426C302.975 349.61 302.79 349.825 302.698 350.139C302.621 350.469 302.736 350.783 302.898 351.021C303.244 351.489 303.713 351.727 304.167 351.949C306.02 352.754 308.027 352.992 309.987 353.107C311.956 353.23 313.924 353.207 315.893 353.099C319.822 352.869 323.72 352.248 327.557 351.397L327.672 351.374L327.703 351.259L338.307 311.34ZM338.307 311.34L327.357 351.167L327.503 351.029C323.682 351.857 319.806 352.463 315.9 352.678C313.947 352.785 311.994 352.793 310.049 352.67C308.111 352.555 306.15 352.302 304.397 351.535C303.982 351.335 303.551 351.09 303.313 350.76C303.198 350.599 303.152 350.407 303.182 350.254C303.228 350.093 303.359 349.917 303.521 349.756C304.19 349.119 305.058 348.636 305.897 348.153C307.596 347.202 309.364 346.35 311.133 345.514C312.901 344.678 314.685 343.873 316.477 343.076L317.823 342.493L318.161 342.355L318.322 342.293C318.315 342.293 318.399 342.27 318.315 342.293C318.238 342.316 318.092 342.224 318.084 342.148C318.061 342.102 318.015 342.01 318.061 341.917C318.115 341.825 318.153 341.825 318.122 341.841C317.923 341.956 317.7 342.063 317.484 342.171C316.615 342.608 315.731 343.03 314.839 343.444C311.287 345.085 307.68 346.626 303.982 347.869C302.137 348.482 300.253 349.042 298.346 349.272C297.415 349.372 296.377 349.395 295.708 348.95C295.055 348.49 295.355 347.416 295.601 346.534C295.847 345.668 296.508 344.97 297.208 344.326C297.923 343.689 298.707 343.114 299.507 342.569C301.114 341.48 302.79 340.468 304.489 339.494C306.189 338.528 307.911 337.607 309.664 336.733L312.279 335.429C312.571 335.437 311.948 335.46 311.848 335.214C311.779 335.122 311.84 334.915 311.917 334.877C311.948 334.854 311.887 334.9 311.871 334.908L311.725 335L311.417 335.191L310.795 335.575L309.534 336.319C306.15 338.267 302.69 340.123 299.092 341.588C298.192 341.948 297.277 342.278 296.354 342.539C295.432 342.792 294.478 343.007 293.586 342.945C293.148 342.914 292.725 342.807 292.494 342.539C292.256 342.293 292.179 341.879 292.202 341.442C292.225 341.005 292.333 340.545 292.471 340.092C292.602 339.624 292.756 339.21 292.979 338.804C293.855 337.185 295.547 336.112 297.192 335.115L302.275 332.17L307.342 329.179L307.973 328.803L308.288 328.619L308.426 328.542C308.434 328.542 308.442 328.534 308.442 328.534C308.188 328.795 307.811 328.082 308.08 327.959C308.119 327.928 308.073 327.959 308.065 327.967C307.673 328.197 307.227 328.442 306.804 328.68L304.236 330.13C300.829 332.085 297.492 334.156 294.194 336.265C292.533 337.301 290.903 338.413 289.173 339.226C288.742 339.402 288.296 339.586 287.873 339.632C287.45 339.678 287.073 339.571 286.797 339.279C286.251 338.673 286.181 337.653 286.243 336.733C286.297 335.79 286.589 334.908 287.135 334.156C287.673 333.397 288.404 332.768 289.165 332.185C290.71 331.035 292.417 330.061 294.109 329.094C297.515 327.177 301.022 325.436 304.597 323.856L304.405 323.342C300.729 324.462 297.177 326.034 293.901 328.059C292.264 329.071 290.71 330.206 289.196 331.38L286.943 333.144C286.189 333.719 285.428 334.302 284.605 334.716C284.198 334.915 283.759 335.076 283.375 335.007C282.99 334.946 282.706 334.624 282.544 334.225C282.245 333.397 282.283 332.423 282.383 331.502C282.591 329.646 283.367 327.875 284.505 326.379C285.643 324.876 287.058 323.588 288.58 322.46C290.111 321.333 291.725 320.32 293.417 319.461C296.816 317.744 300.499 316.647 304.205 315.765C307.927 314.891 311.702 314.277 315.485 313.725C323.051 312.659 330.671 311.876 338.307 311.34Z" fill="#144460"/>
<path d="M208.742 489.653C207.866 488.725 206.605 487.59 204.898 486.585C202.168 484.982 199.577 484.468 197.977 484.284" stroke="#144460" stroke-miterlimit="10"/>
<path d="M61.1102 526.466C73.9281 526.466 86.7383 526.466 99.5563 526.466C103.916 501.41 108.268 476.362 112.628 451.306H48.8074C52.9058 476.362 57.0118 501.418 61.1102 526.466Z" fill="#F3F3F3"/>
<path d="M82.6402 372.311C82.7171 379.728 80.2104 387.359 84.947 395.319C87.7613 400.052 90.8908 401.501 93.4051 403.756C98.5646 408.38 100.748 420.582 88.0227 453.607C82.3865 453.354 76.7426 453.093 71.1064 452.84C68.6459 443.422 65.3472 429.402 62.6483 412.192C61.5103 404.922 51.4143 340.483 61.1104 337.799C66.6851 336.257 82.448 354.143 82.6402 372.311Z" fill="#44AD4E"/>
<path d="M66.1085 352.754C65.3472 361.16 65.6855 369.688 67.1388 378.04C67.8616 382.22 68.8535 386.362 70.1607 390.403C71.4909 394.438 73.098 398.364 74.6281 402.283C77.7346 410.091 79.9183 418.213 80.9409 426.526C81.9482 434.84 81.8483 443.276 80.9717 451.628L81.9867 451.498C80.2566 447.303 78.565 443.1 76.7964 438.92C75.0356 434.74 73.2979 430.545 71.4986 426.381C73.0288 430.652 74.6281 434.894 76.1967 439.15C77.7653 443.407 79.4031 447.632 81.0025 451.881L81.733 453.806L82.0175 451.751C83.1862 443.361 83.3092 434.802 82.3635 426.358C81.8714 422.139 81.1255 417.937 80.0413 413.826C78.9418 409.715 77.5192 405.696 75.9506 401.769C74.382 397.843 72.752 393.962 71.4063 389.997C70.0607 386.032 68.9381 381.982 68.1307 377.864C66.5006 369.627 65.824 361.191 66.1085 352.754Z" fill="#144460"/>
<path d="M49.5763 455.141C70.3372 455.141 91.0981 455.141 111.859 455.141C112.113 453.86 112.374 452.587 112.628 451.306C108.46 451.306 104.293 451.306 100.125 451.306C83.0167 451.306 65.9159 451.306 48.8074 451.306C49.0611 452.587 49.3226 453.868 49.5763 455.141Z" fill="#DBDBDB"/>
<path d="M91.4446 408.749C91.3985 409.761 91.3677 410.766 91.2216 411.755C91.1216 412.744 90.9602 413.718 90.7295 414.677C90.2912 416.594 89.6992 418.473 88.7995 420.207C88.0076 422.001 86.8926 423.627 85.6778 425.169C85.0703 425.943 84.4013 426.68 83.6862 427.37C83.0019 428.098 82.2407 428.743 81.4718 429.418L81.5102 429.479C84.9242 427.309 87.7307 424.187 89.4915 420.536C90.3681 418.711 90.9832 416.763 91.3216 414.777C91.6599 412.783 91.7291 410.75 91.5215 408.741L91.4446 408.749Z" fill="#144460"/>
<path d="M86.4844 526.466C75.2043 509.593 63.9319 492.721 52.6518 475.848C55.4737 492.721 58.288 509.593 61.1099 526.466C69.5681 526.466 78.0262 526.466 86.4844 526.466Z" fill="#DBDBDB"/>
<path d="M204.184 492.307C203.307 491.379 202.046 490.243 200.339 489.239C197.609 487.636 195.018 487.122 193.419 486.938" stroke="#144460" stroke-miterlimit="10"/>
<path d="M198.801 493.841C197.924 492.913 196.663 491.777 194.956 490.773C192.226 489.17 189.635 488.656 188.036 488.472" stroke="#144460" stroke-miterlimit="10"/>
<path d="M169.436 450.508C169.251 449.251 168.874 447.594 168.051 445.792C166.737 442.916 164.914 441.014 163.707 439.948" stroke="#144460" stroke-miterlimit="10"/>
<path d="M164.176 450.071C163.991 448.813 163.614 447.157 162.792 445.355C161.477 442.479 159.655 440.577 158.447 439.51" stroke="#144460" stroke-miterlimit="10"/>
<path d="M158.887 448.246C158.702 446.988 158.325 445.332 157.503 443.529C156.188 440.653 154.365 438.751 153.158 437.685" stroke="#144460" stroke-miterlimit="10"/>
<path d="M262.568 505.759C231.811 504.225 201.055 502.691 170.298 501.157" stroke="#144460" stroke-miterlimit="10"/>
<path d="M123.393 436.734C147.229 453.093 171.066 469.459 194.902 485.818" stroke="#144460" stroke-miterlimit="10"/>
<path d="M210.281 347.769H288.711C289.987 347.769 291.018 346.742 291.018 345.468C291.018 344.195 289.987 343.168 288.711 343.168H210.281C209.004 343.168 207.974 344.195 207.974 345.468C207.974 346.742 209.004 347.769 210.281 347.769Z" fill="#465B65"/>
<path d="M208.744 347.002C203.877 332.684 199.002 318.372 194.134 304.054C216.433 304.054 238.732 304.054 261.03 304.054C265.644 318.372 270.258 332.684 274.871 347.002C252.826 347.002 230.789 347.002 208.744 347.002Z" fill="#465B65"/>
<path d="M248.633 168.169L286.649 187.404C290.816 189.513 295.906 187.856 298.021 183.699L315.422 149.494C317.536 145.337 315.875 140.26 311.708 138.151L273.692 118.916C269.525 116.807 264.434 118.463 262.32 122.62L244.919 156.826C242.805 160.983 244.465 166.06 248.633 168.169Z" fill="#465B65"/>
<path d="M309.055 146.518C308.108 146.518 307.34 145.752 307.34 144.808C307.34 143.863 308.108 143.098 309.055 143.098C310.002 143.098 310.77 143.863 310.77 144.808C310.77 145.752 310.002 146.518 309.055 146.518Z" fill="#E0221F"/>
<path d="M304.863 144.394C303.916 144.394 303.149 143.628 303.149 142.683C303.149 141.739 303.916 140.973 304.863 140.973C305.81 140.973 306.578 141.739 306.578 142.683C306.578 143.628 305.81 144.394 304.863 144.394Z" fill="#E2D11F"/>
<path d="M300.666 142.269C299.719 142.269 298.951 141.503 298.951 140.559C298.951 139.614 299.719 138.849 300.666 138.849C301.613 138.849 302.381 139.614 302.381 140.559C302.381 141.503 301.613 142.269 300.666 142.269Z" fill="#5ED61F"/>
<path d="M288.272 155.599C290.025 158.705 291.786 161.819 293.539 164.925C289.987 164.902 286.442 164.886 282.889 164.863" stroke="#F5FFF9" stroke-width="3" stroke-miterlimit="10"/>
<path d="M279.812 145.989C279.067 152.27 278.321 158.551 277.567 164.833" stroke="#F5FFF9" stroke-width="3" stroke-miterlimit="10"/>
<path d="M275.023 148.857C271.471 149.279 267.919 149.701 264.366 150.123C266.481 152.968 268.595 155.813 270.71 158.659" stroke="#F5FFF9" stroke-width="3" stroke-miterlimit="10"/>
<path d="M263.724 240.448L228.676 221.873C225.108 219.986 220.641 221.259 218.703 224.726L208.899 242.212C206.954 245.678 208.269 250.019 211.837 251.914C215.712 254.069 219.595 256.216 223.47 258.371C223.955 261.247 224.439 264.116 224.916 266.992C225.008 267.613 225.531 267.897 225.585 267.927C226.146 268.226 226.7 267.996 226.761 267.966C229.591 266.654 232.421 265.343 235.25 264.031C239.126 266.186 243.009 268.334 246.884 270.489C250.452 272.375 254.919 271.102 256.857 267.636L266.661 250.15C268.598 246.675 267.284 242.334 263.724 240.448ZM245.592 250.909C245.492 250.947 245.354 250.986 245.185 251.016C241.086 252.167 236.988 253.317 232.89 254.467C231.736 250.709 230.583 246.959 229.43 243.201C229.268 242.879 229.184 242.58 229.153 242.311C228.861 239.85 232.167 236.176 235.566 237.027C237.795 237.587 239.595 239.988 239.495 242.772C241.902 241.13 245 241.291 246.684 242.81C249.283 245.157 247.738 250.096 245.592 250.909Z" fill="#FF0000"/>
<path d="M159.974 120.135C159.566 119.491 159.866 118.517 160.235 117.972C160.727 117.243 161.581 116.937 162.065 116.76C162.888 116.461 163.226 116.576 163.465 116.239C163.795 115.756 163.565 114.828 163.027 114.505C162.657 114.283 162.242 114.406 161.804 114.505C159.989 114.935 158.621 115.257 157.967 114.766C157.406 114.344 157.982 113.792 157.267 111.998C156.975 111.261 156.721 110.609 156.129 109.919C155.799 109.528 155.668 109.482 155.606 109.229C155.43 108.477 156.352 107.994 156.214 107.066C156.199 106.951 156.145 106.614 155.868 106.376C155.553 106.1 155.037 106.054 154.645 106.199C153.815 106.522 153.846 107.588 153.077 107.756C152.9 107.795 152.908 107.718 152.377 107.672C151.862 107.618 151.431 107.641 151.154 107.672C151.154 107.664 151.154 107.657 151.154 107.641C150.878 107.611 150.447 107.588 149.932 107.641C149.409 107.695 149.409 107.772 149.232 107.726C148.456 107.549 148.494 106.491 147.664 106.169C147.271 106.015 146.756 106.069 146.441 106.345C146.164 106.583 146.11 106.928 146.095 107.035C145.957 107.963 146.887 108.447 146.702 109.198C146.641 109.459 146.51 109.505 146.18 109.888C145.595 110.579 145.334 111.231 145.042 111.967C144.334 113.762 144.903 114.314 144.342 114.736C143.688 115.226 142.312 114.904 140.505 114.475C140.074 114.375 139.651 114.252 139.282 114.475C138.744 114.797 138.513 115.725 138.844 116.208C139.075 116.545 139.421 116.43 140.243 116.73C140.728 116.906 141.581 117.213 142.073 117.941C142.443 118.486 142.742 119.46 142.335 120.104C141.812 120.94 140.636 120.357 138.929 121.055C137.252 121.745 135.699 123.41 135.961 124.69C136.076 125.258 136.553 125.81 137.099 125.902C137.844 126.033 138.544 125.273 138.844 124.951C139.567 124.169 139.413 123.693 139.982 123.394C140.597 123.064 141.504 123.233 142.073 123.739C142.727 124.322 142.835 125.404 142.512 126.163C142.043 127.267 140.974 126.991 139.805 128.326C139.613 128.548 138.352 129.99 138.844 131.271C139.013 131.716 139.428 132.252 139.982 132.306C140.666 132.375 141.212 131.662 141.381 131.439C142.035 130.588 141.697 129.998 142.25 129.445C142.75 128.955 143.611 128.832 144.257 129.016C145.295 129.3 145.249 130.228 146.702 131.524C146.964 131.762 148.579 133.196 149.409 132.736C149.67 132.59 149.786 132.291 149.847 132.045C149.878 127.574 149.909 123.103 149.932 118.632C149.963 118.555 150.07 118.279 150.37 118.11C150.732 117.903 151.093 118.003 151.154 118.026C151.154 118.033 151.154 118.041 151.154 118.056C151.216 118.041 151.577 117.934 151.939 118.141C152.239 118.309 152.346 118.586 152.377 118.662C152.408 123.133 152.439 127.605 152.462 132.076C152.515 132.321 152.638 132.621 152.9 132.766C153.73 133.226 155.345 131.792 155.606 131.554C157.06 130.258 157.006 129.33 158.052 129.047C158.698 128.87 159.566 128.985 160.059 129.476C160.612 130.021 160.282 130.611 160.927 131.47C161.097 131.693 161.643 132.406 162.327 132.337C162.88 132.283 163.288 131.739 163.465 131.301C163.957 130.021 162.704 128.586 162.504 128.356C161.343 127.022 160.266 127.29 159.797 126.194C159.474 125.434 159.582 124.353 160.235 123.77C160.804 123.264 161.719 123.095 162.327 123.425C162.888 123.732 162.742 124.2 163.465 124.982C163.765 125.304 164.464 126.063 165.21 125.933C165.749 125.841 166.233 125.289 166.348 124.721C166.61 123.44 165.064 121.776 163.38 121.086C161.673 120.388 160.505 120.971 159.974 120.135Z" fill="#FF0000"/>
<path d="M195.021 158.904C187.171 151.426 179.32 143.948 171.469 136.471C173.238 134.016 177.044 127.981 176.46 120.181C175.606 108.907 165.749 96.1603 151.208 96.1603C137.099 96.1603 125.949 108.155 125.949 121.216C125.949 135.059 137.26 146.272 151.208 146.272C153.753 146.272 156.429 145.735 156.429 145.735C161.581 144.685 165.233 142.353 167.202 140.881C174.906 148.305 182.611 155.728 190.316 163.145C191.092 163.996 192.415 164.057 193.276 163.283L194.891 161.826C195.736 161.074 195.798 159.755 195.021 158.904ZM151.162 140.865C140.243 140.865 131.401 132.084 131.401 121.262C131.401 110.441 140.251 101.659 151.162 101.659C162.081 101.659 170.923 110.441 170.923 121.262C170.923 132.084 162.081 140.865 151.162 140.865Z" fill="#465B65"/>
<g filter="url(#filter0_d_1109_2383)">
<path d="M375.561 121.802C359.148 122.018 342.735 122.229 326.322 122.445C316.725 115.609 316.216 102.865 322.035 97.0985C326.797 92.3803 336.23 91.9102 343.446 97.5297C346.396 91.8067 353.042 89.5727 358.005 91.9232C361.923 93.782 364.368 98.2974 363.948 103.145C369.25 99.9923 376.109 101.83 379.098 107.005C381.955 111.956 380.456 118.529 375.561 121.802Z" fill="white"/>
</g>
<g filter="url(#filter1_d_1109_2383)">
<path d="M59.8293 232.463C79.05 232.71 98.2706 232.953 117.491 233.201C123.619 229.292 124.742 221.381 121.217 216.858C117.526 212.123 108.942 211.365 103.666 216.858C105.602 207.763 99.2033 199.114 90.6285 198.034C82.7557 197.044 74.913 202.661 73.4287 211.033C67.2207 207.412 59.1874 209.522 55.6873 215.466C52.3426 221.153 54.0977 228.703 59.8293 232.463Z" fill="white"/>
</g>
<path d="M238.725 329.213C238.725 329.451 238.808 329.655 238.97 329.817C239.132 329.979 239.334 330.062 239.576 330.062C239.692 330.062 239.804 330.039 239.91 329.992C240.016 329.946 240.112 329.89 240.195 329.811C240.278 329.738 240.344 329.646 240.39 329.543C240.44 329.441 240.463 329.328 240.463 329.209V325.449C240.463 325.049 240.383 324.673 240.228 324.319C240.069 323.962 239.857 323.658 239.586 323.394C239.311 323.13 238.997 322.918 238.636 322.766C238.275 322.611 237.895 322.535 237.494 322.535C237.077 322.535 236.686 322.614 236.322 322.773C235.955 322.932 235.637 323.15 235.359 323.427C235.081 323.15 234.757 322.932 234.386 322.773C234.016 322.614 233.622 322.535 233.208 322.535C232.804 322.535 232.424 322.608 232.073 322.76C231.719 322.908 231.411 323.117 231.146 323.374C230.878 323.635 230.666 323.939 230.504 324.286C230.345 324.63 230.256 325.003 230.239 325.396C230.239 325.406 230.239 325.42 230.233 325.433C230.229 325.446 230.226 325.459 230.226 325.469V329.219C230.226 329.335 230.249 329.447 230.295 329.553C230.342 329.659 230.401 329.745 230.477 329.821C230.554 329.897 230.646 329.956 230.746 330.002C230.848 330.049 230.957 330.072 231.073 330.072C231.196 330.072 231.308 330.049 231.417 330.002C231.523 329.956 231.619 329.9 231.695 329.821C231.775 329.748 231.841 329.655 231.887 329.553C231.937 329.451 231.96 329.338 231.96 329.219V325.489V325.466V325.443C231.97 325.274 232.01 325.116 232.076 324.97C232.142 324.825 232.235 324.703 232.347 324.6C232.46 324.498 232.596 324.415 232.745 324.356C232.894 324.296 233.052 324.266 233.218 324.266C233.387 324.266 233.552 324.299 233.704 324.362C233.86 324.425 233.996 324.511 234.108 324.62C234.224 324.729 234.313 324.858 234.38 325.01C234.446 325.159 234.479 325.317 234.479 325.482V329.209C234.479 329.447 234.562 329.652 234.724 329.814C234.886 329.976 235.088 330.059 235.329 330.059C235.445 330.059 235.558 330.035 235.664 329.989C235.77 329.943 235.866 329.887 235.948 329.807C236.031 329.735 236.097 329.642 236.144 329.54C236.193 329.437 236.217 329.325 236.217 329.206V325.472V325.449C236.223 325.281 236.256 325.119 236.326 324.973C236.392 324.825 236.481 324.703 236.594 324.597C236.706 324.494 236.839 324.412 236.984 324.352C237.133 324.293 237.295 324.263 237.464 324.263C237.633 324.263 237.799 324.293 237.947 324.356C238.1 324.415 238.232 324.504 238.348 324.613C238.464 324.722 238.553 324.848 238.619 324.993C238.686 325.139 238.719 325.294 238.719 325.459V325.466V329.209H238.725V329.213Z" fill="#44AD4E"/>
</g>
<defs>
<filter id="filter0_d_1109_2383" x="310.256" y="83" width="86.2832" height="55.4445" filterUnits="userSpaceOnUse" color-interpolation-filters="sRGB">
<feFlood flood-opacity="0" result="BackgroundImageFix"/>
<feColorMatrix in="SourceAlpha" type="matrix" values="0 0 0 0 0 0 0 0 0 0 0 0 0 0 0 0 0 0 127 0" result="hardAlpha"/>
<feOffset dx="4" dy="4"/>
<feGaussianBlur stdDeviation="6"/>
<feColorMatrix type="matrix" values="0 0 0 0 0.775 0 0 0 0 0.8515 0 0 0 0 1 0 0 0 0.5 0"/>
<feBlend mode="normal" in2="BackgroundImageFix" result="effect1_dropShadow_1109_2383"/>
<feBlend mode="normal" in="SourceGraphic" in2="effect1_dropShadow_1109_2383" result="shape"/>
</filter>
<filter id="filter1_d_1109_2383" x="46" y="189.921" width="93.2031" height="59.2792" filterUnits="userSpaceOnUse" color-interpolation-filters="sRGB">
<feFlood flood-opacity="0" result="BackgroundImageFix"/>
<feColorMatrix in="SourceAlpha" type="matrix" values="0 0 0 0 0 0 0 0 0 0 0 0 0 0 0 0 0 0 127 0" result="hardAlpha"/>
<feOffset dx="4" dy="4"/>
<feGaussianBlur stdDeviation="6"/>
<feColorMatrix type="matrix" values="0 0 0 0 0.775 0 0 0 0 0.8515 0 0 0 0 1 0 0 0 0.5 0"/>
<feBlend mode="normal" in2="BackgroundImageFix" result="effect1_dropShadow_1109_2383"/>
<feBlend mode="normal" in="SourceGraphic" in2="effect1_dropShadow_1109_2383" result="shape"/>
</filter>
<clipPath id="clip0_1109_2383">
<rect width="440" height="448" fill="white" transform="matrix(-1 0 0 1 488 80)"/>
</clipPath>
</defs>
</svg>
