<svg width="71" height="69" viewBox="0 0 71 69" fill="none" xmlns="http://www.w3.org/2000/svg">
<path d="M36.4049 68.1545H33.7686C33.3718 68.1545 33.0498 67.8376 33.0498 67.447V54.3914C33.0498 54.0008 33.3718 53.6838 33.7686 53.6838H36.4049C36.8017 53.6838 37.1237 54.0008 37.1237 54.3914V67.447C37.1237 67.8376 36.8031 68.1545 36.4049 68.1545Z" stroke="#144460" stroke-miterlimit="10"/>
<path d="M24.1429 67.8529C24.9954 67.8798 25.8492 67.9067 26.7017 67.9336C26.7592 67.9293 26.9935 67.9039 27.1617 67.7114C27.2436 67.618 27.2796 67.5204 27.2968 67.4581C28.8421 63.3034 30.3874 59.1473 31.9328 54.9926C32.1685 54.7322 32.1901 54.4167 32.0492 54.2681C31.9658 54.1803 31.8393 54.1648 31.7617 54.1634C30.8359 53.9256 29.9102 53.6865 28.9844 53.4487C28.9154 53.47 28.7415 53.5308 28.5978 53.702C28.4684 53.8577 28.4339 54.019 28.4238 54.0898C26.8526 58.4893 25.2814 62.8874 23.7102 67.2869C23.7059 67.318 23.6844 67.543 23.854 67.7114C23.9647 67.819 24.0941 67.8459 24.1429 67.8529Z" stroke="#144460" stroke-miterlimit="10"/>
<path d="M46.0321 67.8162C45.1797 67.8431 44.3258 67.87 43.4734 67.8969C43.4159 67.8926 43.1816 67.8671 43.0134 67.6747C42.9314 67.5813 42.8955 67.4836 42.8782 67.4214C41.3329 63.2667 39.7876 59.1106 38.2423 54.9558C38.0066 54.6955 37.985 54.3799 38.1259 54.2313C38.2093 54.1436 38.3358 54.128 38.4134 54.1266C39.3391 53.8889 40.2649 53.6497 41.1906 53.412C41.2596 53.4332 41.4336 53.4941 41.5773 53.6653C41.7067 53.8209 41.7412 53.9823 41.7513 54.053C43.3224 58.4525 44.8936 62.8506 46.4648 67.2502C46.4691 67.2813 46.4907 67.5063 46.3211 67.6747C46.2104 67.7836 46.081 67.8091 46.0321 67.8162Z" stroke="#144460" stroke-miterlimit="10"/>
<path d="M38.9494 5.30597H31.6182C31.2214 5.30597 30.8994 4.98899 30.8994 4.59842V1.76822C30.8994 1.37765 31.2214 1.06067 31.6182 1.06067H38.9494C39.3462 1.06067 39.6682 1.37765 39.6682 1.76822V4.59842C39.6682 4.98899 39.3462 5.30597 38.9494 5.30597Z" stroke="#144460" stroke-miterlimit="10"/>
<path d="M67.8438 17.4625V11.2493H3.15625V49.0322H67.8438V22.1689" stroke="#144460" stroke-miterlimit="10"/>
<path d="M30.3813 28.4357C28.7713 29.5324 27.1627 30.6291 25.5527 31.7257C27.3036 32.5507 29.053 33.3757 30.8039 34.2021" stroke="#144460" stroke-miterlimit="10"/>
<path d="M36.8471 25.7598C35.7071 28.9862 34.5672 32.214 33.4287 35.4404" stroke="#144460" stroke-miterlimit="10"/>
<path d="M39.3741 28.4202C41.02 29.4617 42.6645 30.5018 44.3105 31.5433C42.5883 32.4277 40.8676 33.3136 39.1455 34.198" stroke="#144460" stroke-miterlimit="10"/>
<path d="M69.1375 11.2493H1.71875C1.322 11.2493 1 10.9324 1 10.5418V6.01357C1 5.62301 1.322 5.30603 1.71875 5.30603H69.1375C69.5343 5.30603 69.8563 5.62301 69.8563 6.01357V10.5418C69.8563 10.9324 69.5343 11.2493 69.1375 11.2493Z" stroke="#44AD4E" stroke-miterlimit="10"/>
<path d="M69.1375 54.9756H1.71875C1.322 54.9756 1 54.6587 1 54.2681V49.7398C1 49.3492 1.322 49.0322 1.71875 49.0322H69.1375C69.5343 49.0322 69.8563 49.3492 69.8563 49.7398V54.2681C69.8563 54.6587 69.5343 54.9756 69.1375 54.9756Z" fill="#F3F3F3" stroke="#44AD4E" stroke-miterlimit="10"/>
</svg>
