<svg width="34" height="34" viewBox="0 0 34 34" fill="none" xmlns="http://www.w3.org/2000/svg">
<circle cx="17" cy="17" r="17" fill="#144460"/>
<path fill-rule="evenodd" clip-rule="evenodd" d="M13.2895 8.054C14.2493 8.00982 14.5553 8 17 8C19.4447 8 19.7507 8.01064 20.7096 8.054C21.6685 8.09736 22.3231 8.25036 22.8958 8.47209C23.4955 8.69873 24.0396 9.053 24.4896 9.51118C24.9478 9.96036 25.3013 10.5036 25.5271 11.1042C25.7496 11.6769 25.9018 12.3315 25.946 13.2887C25.9902 14.2501 26 14.5561 26 17C26 19.4447 25.9894 19.7507 25.946 20.7105C25.9026 21.6677 25.7496 22.3223 25.5271 22.895C25.3013 23.4956 24.9472 24.0398 24.4896 24.4896C24.0396 24.9478 23.4955 25.3013 22.8958 25.5271C22.3231 25.7496 21.6685 25.9018 20.7113 25.946C19.7507 25.9902 19.4447 26 17 26C14.5553 26 14.2493 25.9894 13.2895 25.946C12.3323 25.9026 11.6777 25.7496 11.105 25.5271C10.5044 25.3012 9.96022 24.9472 9.51036 24.4896C9.05249 24.0402 8.69817 23.4963 8.47209 22.8958C8.25036 22.3231 8.09818 21.6685 8.054 20.7113C8.00982 19.7499 8 19.4439 8 17C8 14.5553 8.01064 14.2493 8.054 13.2904C8.09736 12.3315 8.25036 11.6769 8.47209 11.1042C8.6985 10.5037 9.0531 9.9598 9.51118 9.51036C9.9604 9.05259 10.504 8.69827 11.1042 8.47209C11.6769 8.25036 12.3315 8.09818 13.2887 8.054H13.2895ZM20.6368 9.674C19.6877 9.63064 19.403 9.62164 17 9.62164C14.597 9.62164 14.3123 9.63064 13.3632 9.674C12.4853 9.71409 12.0091 9.86055 11.6916 9.98409C11.2719 10.1477 10.9716 10.3416 10.6566 10.6566C10.358 10.9471 10.1282 11.3008 9.98409 11.6916C9.86055 12.0091 9.71409 12.4853 9.674 13.3632C9.63064 14.3123 9.62164 14.597 9.62164 17C9.62164 19.403 9.63064 19.6877 9.674 20.6368C9.71409 21.5147 9.86055 21.9909 9.98409 22.3084C10.1281 22.6986 10.358 23.0529 10.6566 23.3434C10.9471 23.642 11.3014 23.8719 11.6916 24.0159C12.0091 24.1395 12.4853 24.2859 13.3632 24.326C14.3123 24.3694 14.5962 24.3784 17 24.3784C19.4038 24.3784 19.6877 24.3694 20.6368 24.326C21.5147 24.2859 21.9909 24.1395 22.3084 24.0159C22.7281 23.8523 23.0284 23.6584 23.3434 23.3434C23.642 23.0529 23.8719 22.6986 24.0159 22.3084C24.1395 21.9909 24.2859 21.5147 24.326 20.6368C24.3694 19.6877 24.3784 19.403 24.3784 17C24.3784 14.597 24.3694 14.3123 24.326 13.3632C24.2859 12.4853 24.1395 12.0091 24.0159 11.6916C23.8523 11.2719 23.6584 10.9716 23.3434 10.6566C23.0528 10.3581 22.6992 10.1283 22.3084 9.98409C21.9909 9.86055 21.5147 9.71409 20.6368 9.674ZM15.8505 19.7745C16.4924 20.0417 17.2073 20.0778 17.8729 19.8765C18.5386 19.6752 19.1137 19.2491 19.5 18.6709C19.8864 18.0927 20.06 17.3983 19.9913 16.7064C19.9226 16.0144 19.6157 15.3677 19.1232 14.8768C18.8092 14.563 18.4295 14.3228 18.0115 14.1733C17.5936 14.0238 17.1476 13.9689 16.7059 14.0125C16.2641 14.0561 15.8375 14.1971 15.4567 14.4253C15.076 14.6535 14.7506 14.9633 14.504 15.3324C14.2573 15.7015 14.0956 16.1207 14.0304 16.5598C13.9652 16.9989 13.9982 17.447 14.127 17.8718C14.2558 18.2966 14.4771 18.6876 14.7751 19.0166C15.0731 19.3456 15.4404 19.6044 15.8505 19.7745ZM13.7289 13.7289C14.1585 13.2993 14.6684 12.9586 15.2297 12.7261C15.791 12.4936 16.3925 12.374 17 12.374C17.6075 12.374 18.209 12.4936 18.7703 12.7261C19.3316 12.9586 19.8415 13.2993 20.2711 13.7289C20.7007 14.1585 21.0414 14.6684 21.2739 15.2297C21.5064 15.791 21.626 16.3925 21.626 17C21.626 17.6075 21.5064 18.209 21.2739 18.7703C21.0414 19.3316 20.7007 19.8415 20.2711 20.2711C19.4035 21.1386 18.2269 21.626 17 21.626C15.7731 21.626 14.5965 21.1386 13.7289 20.2711C12.8614 19.4035 12.374 18.2269 12.374 17C12.374 15.7731 12.8614 14.5965 13.7289 13.7289ZM22.652 13.0629C22.7584 12.9625 22.8437 12.8417 22.9026 12.7078C22.9616 12.5739 22.993 12.4294 22.9952 12.2831C22.9973 12.1368 22.97 11.9915 22.915 11.8559C22.86 11.7203 22.7784 11.5971 22.6749 11.4937C22.5714 11.3902 22.4482 11.3085 22.3126 11.2535C22.177 11.1985 22.0317 11.1713 21.8854 11.1734C21.7391 11.1755 21.5947 11.207 21.4607 11.2659C21.3268 11.3249 21.2061 11.4101 21.1056 11.5165C20.9103 11.7236 20.8034 11.9986 20.8076 12.2831C20.8117 12.5677 20.9266 12.8394 21.1279 13.0407C21.3291 13.2419 21.6008 13.3568 21.8854 13.361C22.17 13.3651 22.445 13.2582 22.652 13.0629Z" fill="#F5FFF9"/>
</svg>
