<svg width="69" height="67" viewBox="0 0 69 67" fill="none" xmlns="http://www.w3.org/2000/svg">
<path d="M34.3159 15.7798C38.4465 15.7798 41.795 12.469 41.795 8.38492C41.795 4.30081 38.4465 0.98999 34.3159 0.98999C30.1854 0.98999 26.8369 4.30081 26.8369 8.38492C26.8369 12.469 30.1854 15.7798 34.3159 15.7798Z" stroke="#144460" stroke-miterlimit="10"/>
<path d="M49.7395 24.8916C49.7883 26.3515 49.8718 28.8181 49.9189 30.2085C49.938 30.7738 49.485 31.242 48.9194 31.242C39.0046 31.242 29.088 31.242 19.1732 31.242C18.6365 31.242 18.1955 30.8184 18.1738 30.2821C18.1171 28.8823 18.0596 27.4816 18.0034 26.0822C17.9998 25.9945 18.0074 25.9075 18.028 25.8221C18.258 24.867 18.9041 22.8217 20.7861 21.0814C23.405 18.6582 26.5896 18.5204 27.6389 18.5353C27.7881 18.5374 27.9321 18.5773 28.0641 18.6468C29.9783 19.6539 31.8924 20.6625 33.8066 21.6698C34.112 21.8305 34.4788 21.8223 34.7768 21.6481C36.4892 20.6468 38.2017 19.6442 39.9142 18.6431C40.0291 18.5759 40.1545 18.5317 40.2869 18.5176C41.2264 18.4181 44.3255 18.2608 46.9514 20.4464C47.4272 20.8421 47.8248 21.2626 48.157 21.6836" stroke="#144460" stroke-miterlimit="10"/>
<path d="M61.7726 41.677H6.62695C6.07467 41.677 5.62695 42.1247 5.62695 42.677V65.1996C5.62695 65.7519 6.07467 66.1996 6.62695 66.1996H14C14.5523 66.1996 15 65.7519 15 65.1996V52.9107C15 52.3584 15.4477 51.9107 16 51.9107H54C54.5523 51.9107 55 52.3584 55 52.9107V65.1996C55 65.7519 55.4477 66.1996 56 66.1996H61.7726C62.3249 66.1996 62.7726 65.7519 62.7726 65.1996V53.9383V42.677C62.7726 42.1247 62.3249 41.677 61.7726 41.677Z" stroke="#144460" stroke-miterlimit="10"/>
<path d="M66.6313 35.9814H2C1.44772 35.9814 1 36.4292 1 36.9814V40.6937C1 41.2459 1.44772 41.6937 2 41.6937H66.6313C67.1836 41.6937 67.6313 41.2459 67.6313 40.6937V36.9814C67.6313 36.4292 67.1836 35.9814 66.6313 35.9814Z" stroke="#44AD4E" stroke-miterlimit="10"/>
</svg>
