<svg width="64" height="67" viewBox="0 0 64 67" fill="none" xmlns="http://www.w3.org/2000/svg">
<path d="M34.8285 19.486C33.2185 20.5827 31.61 21.6794 30 22.7761C31.7509 23.6011 33.5003 24.4261 35.2512 25.2525" stroke="#144460" stroke-miterlimit="10"/>
<path d="M41.2953 16.8101C40.1554 20.0365 39.0154 23.2643 37.877 26.4907" stroke="#144460" stroke-miterlimit="10"/>
<path d="M43.8223 19.4705C45.4683 20.512 47.1128 21.5521 48.7587 22.5936C47.0366 23.478 45.3159 24.3639 43.5938 25.2483" stroke="#144460" stroke-miterlimit="10"/>
<path d="M63 5.93375V1.98999C63 1.43771 62.5523 0.98999 62 0.98999H15C14.4477 0.98999 14 1.43771 14 1.98999V39.5401C14 40.0924 14.4477 40.5401 15 40.5401H62C62.5523 40.5401 63 40.0924 63 39.5401V20.765V15.8213" stroke="#44AD4E" stroke-miterlimit="10"/>
<path d="M55 7.91138H22C21.4477 7.91138 21 8.35909 21 8.91138V20.7652V32.619C21 33.1712 21.4477 33.619 22 33.619H55C55.5523 33.619 56 33.1712 56 32.619V20.7652V11.1248V8.91138C56 8.35909 55.5523 7.91138 55 7.91138Z" stroke="#144460" stroke-miterlimit="10"/>
<path d="M17.3189 50.3862C21.4494 50.3862 24.7979 47.0754 24.7979 42.9913C24.7979 38.9071 21.4494 35.5963 17.3189 35.5963C13.1883 35.5963 9.83984 38.9071 9.83984 42.9913C9.83984 47.0754 13.1883 50.3862 17.3189 50.3862Z" fill="#F3F3F3" stroke="#144460" stroke-miterlimit="10"/>
<path d="M32.7414 59.498C32.7902 60.9578 32.8737 63.4244 32.9208 64.8148C32.94 65.3801 32.4869 65.8483 31.9214 65.8483C22.0065 65.8483 12.0899 65.8483 2.17514 65.8483C1.63845 65.8483 1.19747 65.4247 1.17576 64.8884C1.11909 63.4886 1.06156 62.088 1.00531 60.6886C1.00178 60.6008 1.00934 60.5138 1.02991 60.4284C1.25991 59.4733 1.90606 57.4281 3.7881 55.6877C6.40696 53.2645 9.59156 53.1267 10.6409 53.1416C10.79 53.1437 10.9341 53.1836 11.0661 53.2531C12.9802 54.2602 14.8944 55.2688 16.8085 56.2761C17.114 56.4368 17.4807 56.4286 17.7787 56.2544C19.4912 55.2531 21.2037 54.2505 22.9161 53.2494C23.0311 53.1822 23.1565 53.138 23.2889 53.124C24.2283 53.0244 27.3275 52.8671 29.9533 55.0527C30.4292 55.4484 30.8268 55.8689 31.1589 56.2899" stroke="#144460" stroke-miterlimit="10"/>
</svg>
