<svg width="29" height="28" viewBox="0 0 29 28" fill="none" xmlns="http://www.w3.org/2000/svg">
<path fill-rule="evenodd" clip-rule="evenodd" d="M14.7013 27.43C22.2759 27.43 28.4163 21.2895 28.4163 13.715C28.4163 6.1404 22.2759 0 14.7013 0C7.12673 0 0.986328 6.1404 0.986328 13.715C0.986328 21.2895 7.12673 27.43 14.7013 27.43ZM14.7013 6.45411C12.729 6.45411 12.4821 6.46203 11.7078 6.49767H11.7072C10.9349 6.53332 10.4068 6.65609 9.94477 6.83497C9.46059 7.01745 9.02201 7.3033 8.6596 7.67261C8.29003 8.0352 8.00396 8.474 7.8213 8.95845C7.64242 9.4205 7.51898 9.94857 7.484 10.7222C7.44902 11.4958 7.44043 11.7427 7.44043 13.715C7.44043 15.6866 7.44836 15.9335 7.484 16.7091C7.51964 17.4814 7.64242 18.0095 7.8213 18.4715C8.00369 18.9559 8.28955 19.3947 8.65894 19.7573C9.02187 20.1265 9.46088 20.4121 9.94543 20.5943C10.4075 20.7739 10.9356 20.8973 11.7078 20.9323C12.4821 20.9673 12.729 20.9758 14.7013 20.9758C16.6736 20.9758 16.9205 20.9679 17.6954 20.9323C18.4677 20.8966 18.9958 20.7739 19.4578 20.5943C19.9417 20.4121 20.3806 20.127 20.7437 19.7573C21.1128 19.3944 21.3985 18.9554 21.5807 18.4708C21.7602 18.0088 21.8836 17.4807 21.9186 16.7084C21.9536 15.9342 21.9622 15.6873 21.9622 13.715C21.9622 11.7433 21.9543 11.4965 21.9186 10.7209C21.883 9.94857 21.7602 9.4205 21.5807 8.95845C21.3985 8.47395 21.1133 8.03566 20.7437 7.67327C20.3806 7.30363 19.9417 7.01781 19.4578 6.83497C18.9958 6.65609 18.4677 6.53266 17.6941 6.49767C16.9205 6.46269 16.6736 6.45411 14.7013 6.45411ZM14.7013 7.76238C16.64 7.76238 16.8697 7.76964 17.6354 7.80463C18.3436 7.83697 18.7278 7.95513 18.9839 8.0548C19.2992 8.17111 19.5845 8.3565 19.8189 8.59738C20.073 8.85151 20.2295 9.09376 20.3615 9.43238C20.4612 9.68849 20.5793 10.0727 20.6117 10.7809C20.6466 11.5466 20.6539 11.7763 20.6539 13.715C20.6539 15.6536 20.6466 15.8833 20.6117 16.649C20.5793 17.3573 20.4612 17.7415 20.3615 17.9976C20.2453 18.3124 20.0598 18.5982 19.8189 18.8326C19.5648 19.0867 19.3225 19.2431 18.9839 19.3752C18.7278 19.4748 18.3436 19.593 17.6354 19.6253C16.8697 19.6603 16.6406 19.6676 14.7013 19.6676C12.762 19.6676 12.5329 19.6603 11.7673 19.6253C11.059 19.593 10.6748 19.4748 10.4187 19.3752C10.1039 19.259 9.81804 19.0735 9.58371 18.8326C9.34278 18.5982 9.1573 18.3124 9.04113 17.9976C8.94145 17.7415 8.8233 17.3573 8.79096 16.649C8.75597 15.8833 8.74871 15.6536 8.74871 13.715C8.74871 11.7763 8.75597 11.5466 8.79096 10.7809C8.8233 10.0727 8.94145 9.68849 9.04113 9.43238C9.15742 9.11705 9.34281 8.83175 9.58371 8.59738C9.83784 8.34325 10.0801 8.18681 10.4187 8.0548C10.6748 7.95513 11.059 7.83697 11.7673 7.80463C12.5329 7.76964 12.7627 7.76238 14.7013 7.76238ZM15.4056 16.0356C14.8686 16.198 14.2918 16.1689 13.7739 15.9533C13.4431 15.8161 13.1468 15.6073 12.9064 15.3419C12.6659 15.0765 12.4874 14.761 12.3835 14.4183C12.2796 14.0756 12.253 13.7141 12.3056 13.3598C12.3581 13.0056 12.4886 12.6674 12.6876 12.3696C12.8866 12.0719 13.1491 11.8219 13.4563 11.6378C13.7634 11.4537 14.1076 11.3399 14.464 11.3048C14.8204 11.2696 15.1802 11.3139 15.5174 11.4345C15.8546 11.5551 16.1609 11.7489 16.4142 12.0021C16.8116 12.3981 17.0591 12.9198 17.1146 13.4781C17.17 14.0363 17.0299 14.5966 16.7182 15.063C16.4065 15.5295 15.9426 15.8733 15.4056 16.0356ZM13.2731 10.267C12.8203 10.4545 12.4089 10.7294 12.0623 11.076C11.3624 11.7759 10.9692 12.7252 10.9692 13.715C10.9692 14.7048 11.3624 15.6541 12.0623 16.354C12.7622 17.0539 13.7115 17.4471 14.7013 17.4471C15.6911 17.4471 16.6404 17.0539 17.3403 16.354C17.6869 16.0074 17.9618 15.596 18.1493 15.1432C18.3369 14.6904 18.4334 14.2051 18.4334 13.715C18.4334 13.2249 18.3369 12.7396 18.1493 12.2868C17.9618 11.834 17.6869 11.4225 17.3403 11.076C16.9937 10.7294 16.5823 10.4545 16.1295 10.267C15.6767 10.0794 15.1914 9.98287 14.7013 9.98287C14.2112 9.98287 13.7259 10.0794 13.2731 10.267ZM19.4633 10.2522C19.4158 10.3602 19.347 10.4577 19.2611 10.5387C19.0941 10.6962 18.8723 10.7825 18.6427 10.7791C18.4131 10.7758 18.1939 10.6831 18.0315 10.5208C17.8692 10.3584 17.7765 10.1392 17.7731 9.90957C17.7698 9.67999 17.856 9.45815 18.0136 9.29113C18.0946 9.20525 18.192 9.1365 18.3001 9.08894C18.4081 9.04139 18.5246 9.016 18.6427 9.01428C18.7607 9.01256 18.8779 9.03454 18.9873 9.07892C19.0967 9.12331 19.1961 9.18919 19.2796 9.27267C19.3631 9.35615 19.429 9.45553 19.4733 9.56493C19.5177 9.67433 19.5397 9.79153 19.538 9.90957C19.5363 10.0276 19.5109 10.1441 19.4633 10.2522Z" fill="white"/>
</svg>
